%TF.GenerationSoftware,Altium Limited,Altium Designer,22.11.1 (43)*%
G04 Layer_Physical_Order=4*
G04 Layer_Color=16711680*
%FSLAX45Y45*%
%MOMM*%
%TF.SameCoordinates,5CE01347-A356-42F5-95A5-03C013D0245E*%
%TF.FilePolarity,Positive*%
%TF.FileFunction,Copper,L4,Bot,Signal*%
%TF.Part,Single*%
G01*
G75*
%TA.AperFunction,SMDPad,CuDef*%
%ADD16R,1.05000X0.95000*%
%TA.AperFunction,Conductor*%
%ADD37C,0.25400*%
%ADD38C,0.33000*%
%ADD39C,0.40000*%
%ADD41C,0.35000*%
%ADD43C,0.45000*%
%ADD44C,0.20000*%
%TA.AperFunction,ComponentPad*%
%ADD47C,1.30000*%
%ADD48O,0.90000X1.80000*%
%TA.AperFunction,ViaPad*%
%ADD49C,0.45000*%
%TA.AperFunction,SMDPad,CuDef*%
%ADD50R,1.35620X1.05464*%
G36*
X1189948Y2500052D02*
X1183970Y2494074D01*
X1177500Y2478454D01*
Y2461546D01*
X1177547Y2461433D01*
X1168567Y2452453D01*
X1168454Y2452500D01*
X1151546D01*
X1135926Y2446030D01*
X1123970Y2434074D01*
X1117500Y2418454D01*
Y2401546D01*
X1123970Y2385926D01*
X1135926Y2373970D01*
X1151546Y2367500D01*
X1168454D01*
X1184074Y2373970D01*
X1191228Y2372547D01*
X1193970Y2365926D01*
X1205926Y2353970D01*
X1221546Y2347500D01*
X1238454D01*
X1254074Y2353970D01*
X1266030Y2365926D01*
X1272500Y2381546D01*
Y2398454D01*
X1271732Y2400307D01*
X1282499Y2407501D01*
X1742444Y1947556D01*
X1742456Y1947410D01*
X1740692Y1940523D01*
X1737811Y1934229D01*
X1735287Y1933183D01*
X1731101Y1932350D01*
X1727553Y1929979D01*
X1723609Y1928346D01*
X1720591Y1925328D01*
X1717043Y1922957D01*
X1714672Y1919409D01*
X1711654Y1916391D01*
X1710021Y1912448D01*
X1707650Y1908899D01*
X1706817Y1904713D01*
X1705184Y1900770D01*
Y1896502D01*
X1704351Y1892317D01*
X1705184Y1888131D01*
Y1883863D01*
X1706817Y1879920D01*
X1707650Y1875734D01*
X1710021Y1872185D01*
X1711654Y1868242D01*
X1714672Y1865224D01*
X1717043Y1861676D01*
X1720591Y1859305D01*
X1723609Y1856287D01*
X1727553Y1854654D01*
X1731101Y1852283D01*
X1735287Y1851450D01*
X1739230Y1849817D01*
X1743498D01*
X1747684Y1848984D01*
X1830105D01*
X1843601Y1839966D01*
X1851631Y1838369D01*
X2050000Y1640000D01*
X4970000D01*
Y760000D01*
X880000D01*
X774233Y865767D01*
X779873Y878088D01*
X794074Y883970D01*
X806030Y895926D01*
X812500Y911546D01*
Y928454D01*
X806030Y944074D01*
X794074Y956030D01*
X778454Y962500D01*
X761546D01*
X745926Y956030D01*
X733970Y944074D01*
X728088Y929873D01*
X715767Y924233D01*
X590000Y1050000D01*
Y2510000D01*
X1180000D01*
X1189948Y2500052D01*
D02*
G37*
%LPC*%
G36*
X810954Y2067500D02*
X794046D01*
X778426Y2061030D01*
X766470Y2049074D01*
X760000Y2033454D01*
Y2016546D01*
X766470Y2000926D01*
X778426Y1988970D01*
X794046Y1982500D01*
X810954D01*
X826574Y1988970D01*
X838530Y2000926D01*
X845000Y2016546D01*
Y2033454D01*
X838530Y2049074D01*
X826574Y2061030D01*
X810954Y2067500D01*
D02*
G37*
G36*
X1333454Y1942500D02*
X1316546D01*
X1300926Y1936030D01*
X1288970Y1924074D01*
X1282500Y1908454D01*
Y1891546D01*
X1288970Y1875926D01*
X1300926Y1863970D01*
X1316546Y1857500D01*
X1333454D01*
X1349074Y1863970D01*
X1361030Y1875926D01*
X1367500Y1891546D01*
Y1908454D01*
X1361030Y1924074D01*
X1349074Y1936030D01*
X1333454Y1942500D01*
D02*
G37*
G36*
X1600000Y1583332D02*
X1570000D01*
X1553417Y1580034D01*
X1539359Y1570641D01*
X1464029Y1495310D01*
X1312191D01*
X1312190Y1495310D01*
Y1495310D01*
X1312190Y1495310D01*
X1301388Y1499893D01*
X1230640Y1570640D01*
X1227092Y1573011D01*
X1224074Y1576030D01*
X1220131Y1577663D01*
X1216583Y1580034D01*
X1212397Y1580867D01*
X1208454Y1582500D01*
X1204185D01*
X1200000Y1583332D01*
X1195815Y1582500D01*
X1191546D01*
X1187603Y1580867D01*
X1183417Y1580034D01*
X1179869Y1577663D01*
X1175926Y1576030D01*
X1172907Y1573011D01*
X1169359Y1570640D01*
X1166989Y1567092D01*
X1163970Y1564074D01*
X1162337Y1560131D01*
X1159966Y1556583D01*
X1159133Y1552397D01*
X1157500Y1548454D01*
Y1544185D01*
X1156668Y1540000D01*
X1157500Y1535815D01*
Y1531546D01*
X1159133Y1527603D01*
X1159966Y1523417D01*
X1162337Y1519869D01*
X1163970Y1515926D01*
X1166989Y1512908D01*
X1169359Y1509359D01*
X1171676Y1507043D01*
X1166815Y1495310D01*
X1062190D01*
Y1493332D01*
X1000000D01*
X983417Y1490034D01*
X969359Y1480640D01*
X914669Y1425950D01*
X905276Y1411893D01*
X901978Y1395310D01*
X812190D01*
Y1249847D01*
X987810D01*
Y1348624D01*
X988642Y1352810D01*
Y1377361D01*
X1017949Y1406667D01*
X1062190D01*
Y1349847D01*
X1237810D01*
Y1406667D01*
X1312190D01*
Y1349847D01*
X1487810D01*
Y1406667D01*
X1562190D01*
Y1349847D01*
X1737810D01*
Y1406667D01*
X1805691D01*
X1826668Y1385691D01*
Y1290000D01*
X1777500D01*
Y1155000D01*
X1922500D01*
Y1290000D01*
X1913332D01*
Y1403640D01*
X1910034Y1420222D01*
X1900641Y1434280D01*
X1854280Y1480640D01*
X1840222Y1490034D01*
X1823640Y1493332D01*
X1737810D01*
Y1495310D01*
X1637569D01*
X1635743Y1497495D01*
X1630641Y1509360D01*
X1633011Y1512908D01*
X1636030Y1515926D01*
X1637663Y1519869D01*
X1640034Y1523417D01*
X1640867Y1527603D01*
X1642500Y1531546D01*
Y1535814D01*
X1643333Y1540000D01*
X1642500Y1544186D01*
Y1548454D01*
X1640867Y1552396D01*
X1640034Y1556583D01*
X1637663Y1560131D01*
X1636030Y1564074D01*
X1633011Y1567092D01*
X1630641Y1570640D01*
X1627093Y1573011D01*
X1624074Y1576030D01*
X1620131Y1577663D01*
X1616583Y1580034D01*
X1612397Y1580867D01*
X1608454Y1582500D01*
X1604186D01*
X1600000Y1583332D01*
D02*
G37*
G36*
X2697500Y1585832D02*
X2693314Y1585000D01*
X2689046D01*
X2685104Y1583367D01*
X2680917Y1582534D01*
X2677369Y1580163D01*
X2673426Y1578530D01*
X2670408Y1575511D01*
X2666860Y1573141D01*
X2664489Y1569592D01*
X2661470Y1566574D01*
X2659837Y1562631D01*
X2657466Y1559083D01*
X2656633Y1554897D01*
X2655000Y1550954D01*
Y1546686D01*
X2654168Y1542500D01*
Y1530435D01*
X2657466Y1513852D01*
X2660730Y1508968D01*
X2653942Y1496268D01*
X2552935D01*
X2536353Y1492969D01*
X2522294Y1483576D01*
X2484029Y1445310D01*
X2443332D01*
Y1490000D01*
X2442500Y1494186D01*
Y1498454D01*
X2440867Y1502397D01*
X2440034Y1506583D01*
X2437663Y1510131D01*
X2436030Y1514074D01*
X2433011Y1517092D01*
X2430641Y1520641D01*
X2427092Y1523011D01*
X2424074Y1526030D01*
X2420131Y1527663D01*
X2416583Y1530034D01*
X2412396Y1530867D01*
X2408454Y1532500D01*
X2404186D01*
X2400000Y1533332D01*
X2395814Y1532500D01*
X2391546D01*
X2387604Y1530867D01*
X2383417Y1530034D01*
X2379869Y1527663D01*
X2375926Y1526030D01*
X2372908Y1523011D01*
X2369359Y1520641D01*
X2366989Y1517092D01*
X2363970Y1514074D01*
X2362337Y1510131D01*
X2359966Y1506583D01*
X2359133Y1502397D01*
X2357500Y1498454D01*
Y1494186D01*
X2356668Y1490000D01*
Y1445310D01*
X2312190D01*
Y1299847D01*
X2487810D01*
Y1353732D01*
X2497065D01*
X2513648Y1357031D01*
X2527705Y1366424D01*
X2550457Y1389176D01*
X2562190Y1384315D01*
Y1349847D01*
X2737810D01*
Y1409603D01*
X2812190D01*
Y1349847D01*
X2987810D01*
Y1409603D01*
X3062190D01*
Y1349847D01*
X3237810D01*
Y1406667D01*
X3276668D01*
Y1347500D01*
X3277500Y1343315D01*
Y1255000D01*
X3422500D01*
Y1286667D01*
X3510000D01*
X3514186Y1287500D01*
X3518454D01*
X3522397Y1289133D01*
X3526583Y1289966D01*
X3530131Y1292337D01*
X3534074Y1293970D01*
X3537092Y1296989D01*
X3540641Y1299359D01*
X3543011Y1302907D01*
X3546030Y1305926D01*
X3547663Y1309869D01*
X3550034Y1313417D01*
X3550867Y1317603D01*
X3552500Y1321546D01*
Y1325814D01*
X3553332Y1330000D01*
X3552500Y1334186D01*
Y1338454D01*
X3550867Y1342396D01*
X3550034Y1346583D01*
X3547663Y1350131D01*
X3546030Y1354074D01*
X3543011Y1357092D01*
X3540641Y1360640D01*
X3537092Y1363011D01*
X3534074Y1366030D01*
X3530131Y1367663D01*
X3526583Y1370034D01*
X3522397Y1370866D01*
X3518454Y1372500D01*
X3514186D01*
X3510000Y1373332D01*
X3422500D01*
Y1390000D01*
X3363332D01*
Y1430000D01*
X3360034Y1446583D01*
X3350640Y1460641D01*
X3330641Y1480640D01*
X3316583Y1490034D01*
X3300000Y1493332D01*
X3237810D01*
Y1495310D01*
X3173954D01*
X3169768Y1496143D01*
X3144304D01*
X3137516Y1508843D01*
X3142534Y1516353D01*
X3145832Y1532935D01*
Y1540000D01*
X3145000Y1544186D01*
Y1548454D01*
X3143367Y1552396D01*
X3142534Y1556583D01*
X3140163Y1560131D01*
X3138530Y1564074D01*
X3135511Y1567092D01*
X3133141Y1570640D01*
X3129592Y1573011D01*
X3126574Y1576030D01*
X3122631Y1577663D01*
X3119083Y1580034D01*
X3114896Y1580867D01*
X3110954Y1582500D01*
X3106686D01*
X3102500Y1583332D01*
X3098314Y1582500D01*
X3094046D01*
X3090104Y1580867D01*
X3085917Y1580034D01*
X3082369Y1577663D01*
X3078426Y1576030D01*
X3075408Y1573011D01*
X3071859Y1570640D01*
X3069489Y1567092D01*
X3066470Y1564074D01*
X3064837Y1560131D01*
X3062466Y1556583D01*
X3061870Y1553587D01*
X3004551Y1496268D01*
X2792949D01*
X2740000Y1549216D01*
Y1550954D01*
X2738367Y1554897D01*
X2737534Y1559083D01*
X2735163Y1562631D01*
X2733530Y1566574D01*
X2730511Y1569592D01*
X2728141Y1573141D01*
X2724592Y1575511D01*
X2721574Y1578530D01*
X2717631Y1580163D01*
X2714083Y1582534D01*
X2709897Y1583367D01*
X2705954Y1585000D01*
X2701686D01*
X2697500Y1585832D01*
D02*
G37*
G36*
X4200000Y1583333D02*
X4195815Y1582500D01*
X4191546D01*
X4187603Y1580867D01*
X4183417Y1580034D01*
X4179869Y1577663D01*
X4175926Y1576030D01*
X4172908Y1573012D01*
X4169359Y1570641D01*
X4166989Y1567093D01*
X4163970Y1564075D01*
X4162337Y1560131D01*
X4159966Y1556583D01*
X4159133Y1552397D01*
X4157500Y1548454D01*
Y1544185D01*
X4156668Y1540000D01*
X4157500Y1535816D01*
Y1531547D01*
X4159133Y1527604D01*
X4159966Y1523418D01*
X4162337Y1519869D01*
X4163970Y1515926D01*
X4166989Y1512908D01*
X4169359Y1509360D01*
X4171676Y1507043D01*
X4166816Y1495310D01*
X4062190D01*
Y1428701D01*
X4053638Y1422987D01*
X4000510Y1369859D01*
X3987810Y1375119D01*
Y1395310D01*
X3943332D01*
Y1430000D01*
X3942500Y1434186D01*
Y1438454D01*
X3940867Y1442396D01*
X3940034Y1446583D01*
X3937663Y1450131D01*
X3936030Y1454074D01*
X3933011Y1457092D01*
X3930641Y1460640D01*
X3927092Y1463011D01*
X3924074Y1466030D01*
X3920131Y1467663D01*
X3916583Y1470034D01*
X3912397Y1470867D01*
X3908454Y1472500D01*
X3904186D01*
X3900000Y1473332D01*
X3895814Y1472500D01*
X3891546D01*
X3887604Y1470867D01*
X3883417Y1470034D01*
X3879869Y1467663D01*
X3875926Y1466030D01*
X3872908Y1463011D01*
X3869360Y1460640D01*
X3866989Y1457092D01*
X3863970Y1454074D01*
X3862337Y1450131D01*
X3859966Y1446583D01*
X3859134Y1442396D01*
X3857500Y1438454D01*
Y1434186D01*
X3856668Y1430000D01*
Y1395310D01*
X3812190D01*
Y1249847D01*
X3987810D01*
Y1279246D01*
X4014510D01*
X4031093Y1282544D01*
X4045151Y1291938D01*
X4102228Y1349014D01*
X4119768D01*
X4123954Y1349847D01*
X4237810D01*
Y1379246D01*
X4312190D01*
Y1349847D01*
X4487810D01*
Y1379246D01*
X4562190D01*
Y1349847D01*
X4737810D01*
Y1379246D01*
X4789473D01*
X4806668Y1362051D01*
Y1340000D01*
X4777500D01*
Y1205000D01*
X4922500D01*
Y1340000D01*
X4893332D01*
Y1380000D01*
X4892500Y1384186D01*
Y1388454D01*
X4890867Y1392397D01*
X4890034Y1396583D01*
X4887663Y1400131D01*
X4886030Y1404074D01*
X4883011Y1407092D01*
X4880640Y1410641D01*
X4838062Y1453219D01*
X4824004Y1462612D01*
X4807422Y1465911D01*
X4737810D01*
Y1495310D01*
X4633185D01*
X4628324Y1507043D01*
X4630640Y1509359D01*
X4633011Y1512908D01*
X4636030Y1515926D01*
X4637663Y1519869D01*
X4640034Y1523417D01*
X4640867Y1527603D01*
X4642500Y1531546D01*
Y1535815D01*
X4643332Y1540000D01*
X4642500Y1544185D01*
Y1548454D01*
X4640867Y1552397D01*
X4640034Y1556583D01*
X4637663Y1560131D01*
X4636030Y1564074D01*
X4633011Y1567092D01*
X4630640Y1570640D01*
X4627092Y1573011D01*
X4624074Y1576030D01*
X4620131Y1577663D01*
X4616583Y1580034D01*
X4612397Y1580867D01*
X4608454Y1582500D01*
X4604185D01*
X4600000Y1583332D01*
X4595815Y1582500D01*
X4591546D01*
X4587603Y1580867D01*
X4583417Y1580034D01*
X4579869Y1577663D01*
X4575926Y1576030D01*
X4572908Y1573011D01*
X4569359Y1570640D01*
X4498612Y1499893D01*
X4487810Y1495310D01*
X4487810Y1495310D01*
Y1495310D01*
X4487809Y1495310D01*
X4312191D01*
X4312190Y1495310D01*
X4301389Y1499893D01*
X4230641Y1570641D01*
X4227092Y1573012D01*
X4224074Y1576030D01*
X4220131Y1577663D01*
X4216583Y1580034D01*
X4212397Y1580867D01*
X4208454Y1582500D01*
X4204185D01*
X4200000Y1583333D01*
D02*
G37*
G36*
X4818454Y1062500D02*
X4801546D01*
X4785926Y1056030D01*
X4773970Y1044074D01*
X4767500Y1028454D01*
Y1011546D01*
X4773970Y995926D01*
X4785926Y983970D01*
X4801546Y977500D01*
X4818454D01*
X4834074Y983970D01*
X4846030Y995926D01*
X4852500Y1011546D01*
Y1028454D01*
X4846030Y1044074D01*
X4834074Y1056030D01*
X4818454Y1062500D01*
D02*
G37*
G36*
X3333454Y1032500D02*
X3316546D01*
X3300926Y1026030D01*
X3288970Y1014074D01*
X3282500Y998454D01*
Y981546D01*
X3288970Y965926D01*
X3300926Y953970D01*
X3316546Y947500D01*
X3333454D01*
X3349074Y953970D01*
X3361030Y965926D01*
X3367500Y981546D01*
Y998454D01*
X3361030Y1014074D01*
X3349074Y1026030D01*
X3333454Y1032500D01*
D02*
G37*
G36*
X1755954D02*
X1739046D01*
X1723426Y1026030D01*
X1711470Y1014074D01*
X1705000Y998454D01*
Y981546D01*
X1711470Y965926D01*
X1723426Y953970D01*
X1739046Y947500D01*
X1755954D01*
X1771574Y953970D01*
X1783530Y965926D01*
X1790000Y981546D01*
Y998454D01*
X1783530Y1014074D01*
X1771574Y1026030D01*
X1755954Y1032500D01*
D02*
G37*
G36*
X3828454Y1017500D02*
X3811546D01*
X3795926Y1011030D01*
X3783970Y999074D01*
X3777500Y983454D01*
Y966546D01*
X3783970Y950926D01*
X3795926Y938970D01*
X3811546Y932500D01*
X3828454D01*
X3844074Y938970D01*
X3856030Y950926D01*
X3862500Y966546D01*
Y983454D01*
X3856030Y999074D01*
X3844074Y1011030D01*
X3828454Y1017500D01*
D02*
G37*
G36*
X2333453Y985000D02*
X2316546D01*
X2300926Y978530D01*
X2288970Y966574D01*
X2282500Y950954D01*
Y934046D01*
X2288970Y918426D01*
X2300926Y906470D01*
X2316546Y900000D01*
X2333453D01*
X2349074Y906470D01*
X2361029Y918426D01*
X2367499Y934046D01*
Y950954D01*
X2361029Y966574D01*
X2349074Y978530D01*
X2333453Y985000D01*
D02*
G37*
%LPD*%
D16*
X4850000Y1127500D02*
D03*
Y1272500D02*
D03*
X1850000Y1077500D02*
D03*
Y1222500D02*
D03*
X3350000Y1177500D02*
D03*
Y1322500D02*
D03*
D37*
X533305Y4220000D02*
X2850000D01*
X3220000Y4590000D01*
X503305Y4250000D02*
X533305Y4220000D01*
X475000Y4250000D02*
X503305D01*
X3220000Y4590000D02*
X3260000D01*
X3140000Y4690000D02*
X3250000D01*
X221000Y4377000D02*
X2827000D01*
X3140000Y4690000D01*
X2900000Y4080000D02*
X3380000Y4560000D01*
Y4695121D01*
X2490000Y4080000D02*
X2900000D01*
X2400000Y3990000D02*
X2490000Y4080000D01*
X3390000Y4900000D02*
X3470000Y4820000D01*
X2820000Y4870000D02*
X2850000Y4900000D01*
X3390000D01*
X3470000Y4510000D02*
Y4820000D01*
X3305121Y4770000D02*
X3380000Y4695121D01*
X2950000Y3990000D02*
X3470000Y4510000D01*
X3170200Y4080200D02*
X3580683D01*
X2930000Y3890000D02*
X2980000D01*
X3170200Y4080200D01*
X2160000Y4760000D02*
X2730212D01*
X2740213Y4770000D02*
X3305121D01*
X2730212Y4760000D02*
X2740213Y4770000D01*
X2690000Y3990000D02*
X2950000D01*
X3580683Y4080200D02*
X3789633Y3871250D01*
X2132865Y3345200D02*
X2695200D01*
X2760000Y3410000D01*
X2107065Y3371000D02*
X2132865Y3345200D01*
X475000Y3371000D02*
X2107065D01*
X475000Y625000D02*
X540000Y690000D01*
Y2510000D01*
X475000Y600000D02*
Y625000D01*
X4040000Y2090000D02*
X4120000Y2170000D01*
X1770000Y2090000D02*
X4040000D01*
X1280000Y2580000D02*
X1770000Y2090000D01*
X610000Y2580000D02*
X1280000D01*
X540000Y2510000D02*
X610000Y2580000D01*
X3200000Y3625000D02*
X3400000Y3825000D01*
Y3890000D01*
X3479754Y4025000D02*
X4210000Y3294754D01*
X3300000Y4025000D02*
X3479754D01*
X4210000Y3220000D02*
Y3294754D01*
X3789444Y3797419D02*
X3793867D01*
X4066448Y4070000D01*
X4240000D01*
X3300000Y3500000D02*
X3550000Y3750000D01*
X4370000Y3243032D02*
Y4160000D01*
X2878000Y3498000D02*
X3110000Y3730000D01*
X221000Y3498000D02*
X2878000D01*
X4270000Y3350000D02*
Y3800000D01*
X4070000Y4460000D02*
X4370000Y4160000D01*
X3810000Y4100000D02*
X3951836Y4241836D01*
Y4419900D01*
X3780000Y4180000D02*
Y4410000D01*
X4059479Y4689479D01*
X3951836Y4419900D02*
X4079935Y4548000D01*
X4779000D01*
X4510521Y4689479D02*
X4525000Y4675000D01*
X4059479Y4689479D02*
X4510521D01*
D38*
X4370000Y1910000D02*
X4650000D01*
X4760000Y2020000D01*
D39*
X1420000Y3880000D02*
X2580000D01*
X2690000Y3990000D01*
X1370000Y3830000D02*
X1420000Y3880000D01*
X3525000Y4175000D02*
X3680000Y4330000D01*
Y4420000D01*
D41*
X3468065Y3950000D02*
X3870000Y3548065D01*
Y3268410D02*
X3998410Y3140000D01*
X3870000Y3290000D02*
Y3548065D01*
Y3268410D02*
Y3290000D01*
X3730000Y3150000D02*
X3870000Y3290000D01*
X3998410Y3140000D02*
X4420000D01*
X3150000Y3150000D02*
X3730000D01*
X3350000Y3950000D02*
X3468065D01*
X4470000Y3190000D02*
X4760000D01*
X4420000Y3140000D02*
X4470000Y3190000D01*
D43*
X1480000Y1450000D02*
X1823640D01*
X1870000Y1242500D02*
Y1403640D01*
X1823640Y1450000D02*
X1870000Y1403640D01*
X1850000Y1222500D02*
X1870000Y1242500D01*
X3900000Y1322578D02*
Y1430000D01*
X3357500Y1330000D02*
X3510000D01*
X3172578Y1427268D02*
X3195310Y1450000D01*
X3078455Y1452810D02*
X3169768D01*
X3172578Y1415078D02*
Y1450000D01*
X3169768Y1452810D02*
X3172578Y1450000D01*
X3350000Y1322500D02*
X3357500Y1330000D01*
X2400000Y1372578D02*
Y1490000D01*
X1290000Y1450000D02*
X1480000D01*
X1000000D02*
X1290000D01*
X1747684Y1892317D02*
X1847868D01*
X1860184Y1880000D02*
X1880000D01*
X1847868Y1892317D02*
X1860184Y1880000D01*
X1880000D02*
X3420000D01*
X3500000Y1800000D01*
X2024995Y1740243D02*
X2030995Y1734243D01*
X2034243D01*
X2019757Y1740243D02*
X2024995D01*
X1880000Y1880000D02*
X2019757Y1740243D01*
X1480000Y1450000D02*
X1570000Y1540000D01*
X1600000D01*
X1200000D02*
X1290000Y1450000D01*
X3300000D02*
X3320000Y1430000D01*
Y1347500D02*
X3345000Y1322500D01*
X3350000D01*
X3320000Y1347500D02*
Y1430000D01*
X3195310Y1450000D02*
X3300000D01*
X4525000Y1422578D02*
X4650000D01*
X4400000D02*
X4525000D01*
Y1465000D01*
X4600000Y1540000D01*
X4275000Y1422578D02*
X4400000D01*
X4150000D02*
X4275000D01*
Y1465000D01*
X4200000Y1540000D02*
X4275000Y1465000D01*
X4850000Y1272500D02*
Y1380000D01*
X4807422Y1422578D02*
X4850000Y1380000D01*
X4650000Y1422578D02*
X4807422D01*
X4014510Y1322578D02*
X4084279Y1392346D01*
X4119768D02*
X4150000Y1422578D01*
X3900000Y1322578D02*
X4014510D01*
X4084279Y1392346D02*
X4119768D01*
X2697500Y1530435D02*
X2775000Y1452935D01*
X2697500Y1530435D02*
Y1542500D01*
X2775000Y1452935D02*
X3022500D01*
X2552935D02*
X2775000D01*
X945310Y1395310D02*
X1000000Y1450000D01*
X3022500Y1452935D02*
X3078330D01*
X3022500D02*
X3102500Y1532935D01*
Y1540000D01*
X3078330Y1452935D02*
X3078455Y1452810D01*
X2424487Y1397065D02*
X2497065D01*
X2400000Y1372578D02*
X2424487Y1397065D01*
X2497065D02*
X2552935Y1452935D01*
X900000Y1322578D02*
X915078D01*
X945310Y1352810D01*
Y1395310D01*
D44*
X4174246Y2150000D02*
X4250000D01*
X4044246Y2020000D02*
X4174246Y2150000D01*
X2201851Y2018149D02*
X3088149D01*
X3090000Y2020000D01*
X4044246D01*
X2200000D02*
X2201851Y2018149D01*
X2068389Y1970000D02*
X2114687Y2016298D01*
X2194363D01*
X1820000Y1970000D02*
X2068389D01*
D47*
X475000Y346000D02*
D03*
X221000Y473000D02*
D03*
X475000Y600000D02*
D03*
X221000Y727000D02*
D03*
X4525000Y4675000D02*
D03*
X4779000Y4548000D02*
D03*
X4525000Y4421000D02*
D03*
X4779000Y4294000D02*
D03*
X475000Y3371000D02*
D03*
X221000Y3498000D02*
D03*
X475000Y3625000D02*
D03*
X221000Y3752000D02*
D03*
X475000Y4250000D02*
D03*
X221000Y4377000D02*
D03*
X475000Y4504000D02*
D03*
X221000Y4631000D02*
D03*
D48*
X1170000Y4850000D02*
D03*
X1830000D02*
D03*
D49*
X1320000Y4570000D02*
D03*
X430000Y1730000D02*
D03*
X802500Y2025000D02*
D03*
X3690000Y1900000D02*
D03*
X972655Y1422655D02*
D03*
X1870000Y1330000D02*
D03*
X4850000Y1380000D02*
D03*
X3900000Y1430000D02*
D03*
X3510000Y1330000D02*
D03*
X2400000Y1490000D02*
D03*
X1300000Y4305200D02*
D03*
X2400000Y3990000D02*
D03*
X1370000Y3830000D02*
D03*
X2160000Y4760000D02*
D03*
X3260000Y4590000D02*
D03*
X2930000Y3890000D02*
D03*
X3870000Y3320000D02*
D03*
X3970000Y4520000D02*
D03*
X1370000Y3290000D02*
D03*
X2410000Y3430000D02*
D03*
X2220000D02*
D03*
X2690000Y3990000D02*
D03*
X1747684Y1892317D02*
D03*
X2810000Y4500000D02*
D03*
X1350000Y3700000D02*
D03*
Y3570000D02*
D03*
X3550000Y3550000D02*
D03*
X3650000Y3400000D02*
D03*
X4850000Y3525000D02*
D03*
X980000Y2250000D02*
D03*
X920000Y2290000D02*
D03*
X860000Y2250000D02*
D03*
X800000Y2290000D02*
D03*
X1160000Y2410000D02*
D03*
X1230000Y2390000D02*
D03*
X1220000Y2470000D02*
D03*
X2110000Y2460000D02*
D03*
X2870000Y2450000D02*
D03*
X4620000Y2460000D02*
D03*
X4120000Y2170000D02*
D03*
X450000Y2200000D02*
D03*
Y2350000D02*
D03*
X910000Y2440000D02*
D03*
X780000D02*
D03*
X910000Y2370000D02*
D03*
X780000Y2360000D02*
D03*
X680000Y2290000D02*
D03*
X740000Y2250000D02*
D03*
X3860000Y2190000D02*
D03*
X1030000Y2180000D02*
D03*
Y2098609D02*
D03*
Y2017218D02*
D03*
X1325000Y1900000D02*
D03*
X1510000Y2890000D02*
D03*
X1760000D02*
D03*
X2290000Y1770000D02*
D03*
X300000Y2050000D02*
D03*
Y2350000D02*
D03*
Y2200000D02*
D03*
X150000D02*
D03*
Y2050000D02*
D03*
X450000D02*
D03*
X150000Y2350000D02*
D03*
X4600000Y1540000D02*
D03*
X4200000Y1540000D02*
D03*
X2697500Y1542500D02*
D03*
X1600000Y1540000D02*
D03*
X1200000D02*
D03*
X3102500D02*
D03*
X1760000Y905000D02*
D03*
X1645000D02*
D03*
X3150000Y3150000D02*
D03*
X3090000Y2020000D02*
D03*
X2325000Y942500D02*
D03*
X2034243Y1734243D02*
D03*
X2194363Y2016298D02*
D03*
X1820000Y1970000D02*
D03*
X3325000Y990000D02*
D03*
X3227500Y905000D02*
D03*
X2825000Y2750000D02*
D03*
X2150000D02*
D03*
X3400000Y3890000D02*
D03*
X3200000Y3625000D02*
D03*
X3300000Y4025000D02*
D03*
X3350000Y3950000D02*
D03*
X4210000Y3220000D02*
D03*
X3789444Y3797419D02*
D03*
X3789633Y3871250D02*
D03*
X3550000Y3750000D02*
D03*
X3300000Y3500000D02*
D03*
X4370000Y3243032D02*
D03*
X3525000Y4175000D02*
D03*
X3650000Y4500000D02*
D03*
X3680000Y4420000D02*
D03*
X1926250Y828750D02*
D03*
X1850000Y905000D02*
D03*
X4621250D02*
D03*
X4745000D02*
D03*
X4937500Y810000D02*
D03*
X4842500Y905000D02*
D03*
X3427500Y820000D02*
D03*
X3342500Y905000D02*
D03*
X3121250D02*
D03*
X3820000Y975000D02*
D03*
X4810000Y1020000D02*
D03*
X1747500Y990000D02*
D03*
X1525000Y625000D02*
D03*
X1275000D02*
D03*
X1350000Y550000D02*
D03*
X1450000D02*
D03*
X2950000D02*
D03*
X2850000D02*
D03*
X2775000Y625000D02*
D03*
X3025000D02*
D03*
X4450000Y550000D02*
D03*
X4350000D02*
D03*
X4525000Y625000D02*
D03*
X4275000D02*
D03*
X2820000Y4870000D02*
D03*
X770000Y920000D02*
D03*
X4760000Y2020000D02*
D03*
X4370000Y1910000D02*
D03*
X3910000Y2720000D02*
D03*
X2180600Y4497500D02*
D03*
X3580000Y4760000D02*
D03*
X4650000Y3250000D02*
D03*
X2100000Y3300000D02*
D03*
X4760000Y3190000D02*
D03*
X3500000Y1800000D02*
D03*
X4250000Y2150000D02*
D03*
X2760000Y3410000D02*
D03*
X3110000Y3730000D02*
D03*
X4240000Y4070000D02*
D03*
X4270000Y3350000D02*
D03*
X3250000Y4690000D02*
D03*
X3810000Y4100000D02*
D03*
X3780000Y4180000D02*
D03*
X4270000Y3800000D02*
D03*
X4070000Y4460000D02*
D03*
D50*
X3900000Y1177422D02*
D03*
Y1322578D02*
D03*
X4150000Y1277422D02*
D03*
Y1422578D02*
D03*
X4400000Y1277422D02*
D03*
Y1422578D02*
D03*
X4650000Y1277422D02*
D03*
Y1422578D02*
D03*
X1650000Y1277422D02*
D03*
Y1422578D02*
D03*
X1400000Y1277422D02*
D03*
Y1422578D02*
D03*
X1150000Y1277422D02*
D03*
Y1422578D02*
D03*
X900000Y1177422D02*
D03*
Y1322578D02*
D03*
X2400000Y1227422D02*
D03*
Y1372578D02*
D03*
X2900000Y1277422D02*
D03*
Y1422578D02*
D03*
X2650000Y1277422D02*
D03*
Y1422578D02*
D03*
X3150000Y1277422D02*
D03*
Y1422578D02*
D03*
%TF.MD5,5194c4ccaf38a635cecbd222c47f8809*%
M02*
