%TF.GenerationSoftware,Altium Limited,Altium Designer,22.11.1 (43)*%
G04 Layer_Color=32896*
%FSLAX45Y45*%
%MOMM*%
%TF.SameCoordinates,5EC9F59A-04D6-4A79-9134-D6B8A4EC69BD*%
%TF.FilePolarity,Positive*%
%TF.FileFunction,Legend,Bot*%
%TF.Part,Single*%
G01*
G75*
%TA.AperFunction,NonConductor*%
%ADD52C,0.20000*%
%ADD56C,0.25400*%
D52*
X3787500Y1124690D02*
Y1375310D01*
X4012500Y1124690D02*
Y1375310D01*
X4037500Y1224690D02*
Y1475310D01*
X4262500Y1224690D02*
Y1475310D01*
X4287500Y1224690D02*
Y1475310D01*
X4512500Y1224690D02*
Y1475310D01*
X4537500Y1224690D02*
Y1475310D01*
X4762500Y1224690D02*
Y1475310D01*
X1537500Y1224690D02*
Y1475310D01*
X1762500Y1224690D02*
Y1475310D01*
X1287500Y1224690D02*
Y1475310D01*
X1512500Y1224690D02*
Y1475310D01*
X1037500Y1224690D02*
Y1475310D01*
X1262500Y1224690D02*
Y1475310D01*
X787500Y1124690D02*
Y1375310D01*
X1012500Y1124690D02*
Y1375310D01*
X2287500Y1174690D02*
Y1425310D01*
X2512500Y1174690D02*
Y1425310D01*
X2787500Y1224690D02*
Y1475310D01*
X3012500Y1224690D02*
Y1475310D01*
X2537500Y1224690D02*
Y1475310D01*
X2762500Y1224690D02*
Y1475310D01*
X3037500Y1224690D02*
Y1475310D01*
X3262500Y1224690D02*
Y1475310D01*
X4833290Y250016D02*
Y349984D01*
X4783306D01*
X4766645Y333322D01*
Y300000D01*
X4783306Y283339D01*
X4833290D01*
X4733323Y333322D02*
X4716661Y349984D01*
X4683339D01*
X4666677Y333322D01*
Y316661D01*
X4683339Y300000D01*
X4666677Y283339D01*
Y266677D01*
X4683339Y250016D01*
X4716661D01*
X4733323Y266677D01*
Y283339D01*
X4716661Y300000D01*
X4733323Y316661D01*
Y333322D01*
X4716661Y300000D02*
X4683339D01*
X4633355D02*
X4566710D01*
X4233290Y250016D02*
Y349984D01*
X4183306D01*
X4166645Y333322D01*
Y300000D01*
X4183306Y283339D01*
X4233290D01*
X4133322Y349984D02*
X4066677D01*
Y333322D01*
X4133322Y266677D01*
Y250016D01*
X4033355Y300000D02*
X3966710D01*
X4000032Y333322D02*
Y266677D01*
X1833290Y250016D02*
Y349984D01*
X1783306D01*
X1766645Y333322D01*
Y300000D01*
X1783306Y283339D01*
X1833290D01*
X1666677Y349984D02*
X1700000Y333322D01*
X1733322Y300000D01*
Y266677D01*
X1716661Y250016D01*
X1683339D01*
X1666677Y266677D01*
Y283339D01*
X1683339Y300000D01*
X1733322D01*
X1633355D02*
X1566710D01*
X1233290Y250016D02*
Y349984D01*
X1183306D01*
X1166645Y333322D01*
Y300000D01*
X1183306Y283339D01*
X1233290D01*
X1066678Y349984D02*
X1133323D01*
Y300000D01*
X1100000Y316661D01*
X1083339D01*
X1066678Y300000D01*
Y266677D01*
X1083339Y250016D01*
X1116661D01*
X1133323Y266677D01*
X1033355Y300000D02*
X966710D01*
X3333290Y250016D02*
Y349984D01*
X3283306D01*
X3266645Y333322D01*
Y300000D01*
X3283306Y283339D01*
X3333290D01*
X3183339Y250016D02*
Y349984D01*
X3233322Y300000D01*
X3166677D01*
X3133355D02*
X3066710D01*
X2733290Y250016D02*
Y349984D01*
X2683306D01*
X2666645Y333322D01*
Y300000D01*
X2683306Y283339D01*
X2733290D01*
X2633322Y333322D02*
X2616661Y349984D01*
X2583338D01*
X2566677Y333322D01*
Y316661D01*
X2583338Y300000D01*
X2600000D01*
X2583338D01*
X2566677Y283339D01*
Y266677D01*
X2583338Y250016D01*
X2616661D01*
X2633322Y266677D01*
X2533355Y300000D02*
X2466710D01*
X2500032Y333322D02*
Y266677D01*
X250016Y2116693D02*
X349984D01*
Y2166677D01*
X333322Y2183338D01*
X300000D01*
X283339Y2166677D01*
Y2116693D01*
X250016Y2283306D02*
Y2216661D01*
X316661Y2283306D01*
X333322D01*
X349984Y2266645D01*
Y2233322D01*
X333322Y2216661D01*
X250016Y2733355D02*
X349984D01*
Y2783339D01*
X333322Y2800000D01*
X300000D01*
X283339Y2783339D01*
Y2733355D01*
X250016Y2833323D02*
Y2866645D01*
Y2849984D01*
X349984D01*
X333322Y2833323D01*
X4816677Y936645D02*
X4800016Y953306D01*
Y986629D01*
X4816677Y1003290D01*
X4883322D01*
X4899984Y986629D01*
Y953306D01*
X4883322Y936645D01*
X4816677Y903322D02*
X4800016Y886661D01*
Y853338D01*
X4816677Y836677D01*
X4833339D01*
X4850000Y853338D01*
Y870000D01*
Y853338D01*
X4866661Y836677D01*
X4883322D01*
X4899984Y853338D01*
Y886661D01*
X4883322Y903322D01*
X4816677Y803355D02*
X4800016Y786693D01*
Y753371D01*
X4816677Y736709D01*
X4883322D01*
X4899984Y753371D01*
Y786693D01*
X4883322Y803355D01*
X4816677D01*
X4616677Y1126645D02*
X4600016Y1143307D01*
Y1176629D01*
X4616677Y1193290D01*
X4683322D01*
X4699984Y1176629D01*
Y1143307D01*
X4683322Y1126645D01*
X4699984Y1026678D02*
Y1093323D01*
X4633339Y1026678D01*
X4616677D01*
X4600016Y1043339D01*
Y1076661D01*
X4616677Y1093323D01*
X4683322Y993355D02*
X4699984Y976693D01*
Y943371D01*
X4683322Y926710D01*
X4616677D01*
X4600016Y943371D01*
Y976693D01*
X4616677Y993355D01*
X4633339D01*
X4650000Y976693D01*
Y926710D01*
X4366677Y1126645D02*
X4350016Y1143307D01*
Y1176629D01*
X4366677Y1193290D01*
X4433322D01*
X4449984Y1176629D01*
Y1143307D01*
X4433322Y1126645D01*
X4449984Y1026678D02*
Y1093323D01*
X4383339Y1026678D01*
X4366677D01*
X4350016Y1043339D01*
Y1076661D01*
X4366677Y1093323D01*
Y993355D02*
X4350016Y976693D01*
Y943371D01*
X4366677Y926710D01*
X4383339D01*
X4400000Y943371D01*
X4416661Y926710D01*
X4433322D01*
X4449984Y943371D01*
Y976693D01*
X4433322Y993355D01*
X4416661D01*
X4400000Y976693D01*
X4383339Y993355D01*
X4366677D01*
X4400000Y976693D02*
Y943371D01*
X4116677Y1124067D02*
X4100016Y1140728D01*
Y1174051D01*
X4116677Y1190712D01*
X4183322D01*
X4199984Y1174051D01*
Y1140728D01*
X4183322Y1124067D01*
X4199984Y1024100D02*
Y1090745D01*
X4133339Y1024100D01*
X4116677D01*
X4100016Y1040761D01*
Y1074083D01*
X4116677Y1090745D01*
X4100016Y990777D02*
Y924132D01*
X4116677D01*
X4183322Y990777D01*
X4199984D01*
X3876678Y1016645D02*
X3860016Y1033306D01*
Y1066629D01*
X3876678Y1083290D01*
X3943323D01*
X3959984Y1066629D01*
Y1033306D01*
X3943323Y1016645D01*
X3959984Y916677D02*
Y983322D01*
X3893339Y916677D01*
X3876678D01*
X3860016Y933338D01*
Y966661D01*
X3876678Y983322D01*
X3860016Y816710D02*
X3876678Y850032D01*
X3910000Y883355D01*
X3943323D01*
X3959984Y866693D01*
Y833371D01*
X3943323Y816710D01*
X3926661D01*
X3910000Y833371D01*
Y883355D01*
X3309177Y971645D02*
X3292515Y988306D01*
Y1021629D01*
X3309177Y1038290D01*
X3375822D01*
X3392483Y1021629D01*
Y988306D01*
X3375822Y971645D01*
X3392483Y871677D02*
Y938322D01*
X3325838Y871677D01*
X3309177D01*
X3292515Y888339D01*
Y921661D01*
X3309177Y938322D01*
X3392483Y788371D02*
X3292515D01*
X3342499Y838355D01*
Y771710D01*
X3126677Y1126645D02*
X3110016Y1143307D01*
Y1176629D01*
X3126677Y1193290D01*
X3193322D01*
X3209984Y1176629D01*
Y1143307D01*
X3193322Y1126645D01*
X3209984Y1026678D02*
Y1093323D01*
X3143339Y1026678D01*
X3126677D01*
X3110016Y1043339D01*
Y1076661D01*
X3126677Y1093323D01*
Y993355D02*
X3110016Y976693D01*
Y943371D01*
X3126677Y926710D01*
X3143339D01*
X3160000Y943371D01*
Y960032D01*
Y943371D01*
X3176661Y926710D01*
X3193322D01*
X3209984Y943371D01*
Y976693D01*
X3193322Y993355D01*
X2866677Y1126645D02*
X2850016Y1143307D01*
Y1176629D01*
X2866677Y1193290D01*
X2933322D01*
X2949984Y1176629D01*
Y1143307D01*
X2933322Y1126645D01*
X2949984Y1026678D02*
Y1093323D01*
X2883339Y1026678D01*
X2866677D01*
X2850016Y1043339D01*
Y1076661D01*
X2866677Y1093323D01*
X2949984Y926710D02*
Y993355D01*
X2883339Y926710D01*
X2866677D01*
X2850016Y943371D01*
Y976693D01*
X2866677Y993355D01*
X2616678Y1119984D02*
X2600016Y1136645D01*
Y1169967D01*
X2616678Y1186629D01*
X2683323D01*
X2699984Y1169967D01*
Y1136645D01*
X2683323Y1119984D01*
X2699984Y1020016D02*
Y1086661D01*
X2633339Y1020016D01*
X2616678D01*
X2600016Y1036677D01*
Y1070000D01*
X2616678Y1086661D01*
X2699984Y986693D02*
Y953371D01*
Y970032D01*
X2600016D01*
X2616678Y986693D01*
X2366677Y1066646D02*
X2350016Y1083307D01*
Y1116629D01*
X2366677Y1133291D01*
X2433322D01*
X2449984Y1116629D01*
Y1083307D01*
X2433322Y1066646D01*
X2449984Y966678D02*
Y1033323D01*
X2383339Y966678D01*
X2366677D01*
X2350016Y983339D01*
Y1016661D01*
X2366677Y1033323D01*
Y933355D02*
X2350016Y916694D01*
Y883371D01*
X2366677Y866710D01*
X2433322D01*
X2449984Y883371D01*
Y916694D01*
X2433322Y933355D01*
X2366677D01*
X1826678Y888315D02*
X1810016Y904976D01*
Y938298D01*
X1826678Y954960D01*
X1893323D01*
X1909984Y938298D01*
Y904976D01*
X1893323Y888315D01*
X1909984Y854992D02*
Y821669D01*
Y838331D01*
X1810016D01*
X1826678Y854992D01*
Y771686D02*
X1810016Y755024D01*
Y721702D01*
X1826678Y705041D01*
X1843339D01*
X1860000Y721702D01*
X1876661Y705041D01*
X1893323D01*
X1909984Y721702D01*
Y755024D01*
X1893323Y771686D01*
X1876661D01*
X1860000Y755024D01*
X1843339Y771686D01*
X1826678D01*
X1860000Y755024D02*
Y721702D01*
X1616677Y1118315D02*
X1600016Y1134976D01*
Y1168298D01*
X1616677Y1184960D01*
X1683322D01*
X1699984Y1168298D01*
Y1134976D01*
X1683322Y1118315D01*
X1699984Y1084992D02*
Y1051669D01*
Y1068331D01*
X1600016D01*
X1616677Y1084992D01*
X1600016Y1001686D02*
Y935041D01*
X1616677D01*
X1683322Y1001686D01*
X1699984D01*
X1366677Y1118315D02*
X1350016Y1134976D01*
Y1168298D01*
X1366677Y1184960D01*
X1433322D01*
X1449984Y1168298D01*
Y1134976D01*
X1433322Y1118315D01*
X1449984Y1084992D02*
Y1051669D01*
Y1068331D01*
X1350016D01*
X1366677Y1084992D01*
X1350016Y935041D02*
X1366677Y968363D01*
X1400000Y1001686D01*
X1433322D01*
X1449984Y985024D01*
Y951702D01*
X1433322Y935041D01*
X1416661D01*
X1400000Y951702D01*
Y1001686D01*
X1116677Y1118315D02*
X1100016Y1134976D01*
Y1168298D01*
X1116677Y1184960D01*
X1183322D01*
X1199984Y1168298D01*
Y1134976D01*
X1183322Y1118315D01*
X1199984Y1084992D02*
Y1051669D01*
Y1068331D01*
X1100016D01*
X1116677Y1084992D01*
X1100016Y935041D02*
Y1001686D01*
X1150000D01*
X1133339Y968363D01*
Y951702D01*
X1150000Y935041D01*
X1183322D01*
X1199984Y951702D01*
Y985024D01*
X1183322Y1001686D01*
X866677Y998314D02*
X850016Y1014976D01*
Y1048298D01*
X866677Y1064960D01*
X933322D01*
X949984Y1048298D01*
Y1014976D01*
X933322Y998314D01*
X949984Y964992D02*
Y931669D01*
Y948330D01*
X850016D01*
X866677Y964992D01*
X949984Y831701D02*
X850016D01*
X900000Y881685D01*
Y815040D01*
D56*
Y100000D02*
Y500000D01*
Y100000D02*
X1300000D01*
Y500000D01*
X900000D02*
X1300000D01*
X1900000Y100000D02*
Y500000D01*
X1500000Y100000D02*
X1900000D01*
X1500000D02*
Y500000D01*
X1900000D01*
X2800000Y100000D02*
Y500000D01*
X2400000Y100000D02*
X2800000D01*
X2400000D02*
Y500000D01*
X2800000D01*
X3400000Y100000D02*
Y500000D01*
X3000000Y100000D02*
X3400000D01*
X3000000D02*
Y500000D01*
X3400000D01*
X4500000D02*
X4900000D01*
Y100000D02*
Y500000D01*
X4500000Y100000D02*
X4900000D01*
X4500000D02*
Y500000D01*
X3900000D02*
X4300000D01*
Y100000D02*
Y500000D01*
X3900000Y100000D02*
X4300000D01*
X3900000D02*
Y500000D01*
X100000Y2000000D02*
Y2400000D01*
Y2000000D02*
X500000D01*
Y2400000D01*
X100000D02*
X500000D01*
X100000Y2600000D02*
Y3000000D01*
Y2600000D02*
X500000D01*
Y3000000D01*
X100000D02*
X500000D01*
%TF.MD5,409cc4ef6c6b6b3e20842d6d730e43c0*%
M02*
