%TF.GenerationSoftware,Altium Limited,Altium Designer,22.11.1 (43)*%
G04 Layer_Color=128*
%FSLAX45Y45*%
%MOMM*%
%TF.SameCoordinates,5CE01347-A356-42F5-95A5-03C013D0245E*%
%TF.FilePolarity,Positive*%
%TF.FileFunction,Paste,Bot*%
%TF.Part,Single*%
G01*
G75*
%TA.AperFunction,SMDPad,CuDef*%
%ADD50R,1.35620X1.05464*%
%ADD63R,1.15000X1.05000*%
D50*
X3900000Y1177422D02*
D03*
Y1322578D02*
D03*
X4150000Y1277422D02*
D03*
Y1422578D02*
D03*
X4400000Y1277422D02*
D03*
Y1422578D02*
D03*
X4650000Y1277422D02*
D03*
Y1422578D02*
D03*
X1650000Y1277422D02*
D03*
Y1422578D02*
D03*
X1400000Y1277422D02*
D03*
Y1422578D02*
D03*
X1150000Y1277422D02*
D03*
Y1422578D02*
D03*
X900000Y1177422D02*
D03*
Y1322578D02*
D03*
X2400000Y1227422D02*
D03*
Y1372578D02*
D03*
X2900000Y1277422D02*
D03*
Y1422578D02*
D03*
X2650000Y1277422D02*
D03*
Y1422578D02*
D03*
X3150000Y1277422D02*
D03*
Y1422578D02*
D03*
D63*
X4850000Y1127500D02*
D03*
Y1272500D02*
D03*
X1850000Y1077500D02*
D03*
Y1222500D02*
D03*
X3350000Y1177500D02*
D03*
Y1322500D02*
D03*
%TF.MD5,d8d1f40fbe7ba2da6fc08b7b73f50ac6*%
M02*
