%TF.GenerationSoftware,Altium Limited,Altium Designer,22.11.1 (43)*%
G04 Layer_Physical_Order=3*
G04 Layer_Color=16440176*
%FSLAX45Y45*%
%MOMM*%
%TF.SameCoordinates,5EC9F59A-04D6-4A79-9134-D6B8A4EC69BD*%
%TF.FilePolarity,Positive*%
%TF.FileFunction,Copper,L3,Inr,Signal*%
%TF.Part,Single*%
G01*
G75*
%TA.AperFunction,ComponentPad*%
%ADD47C,1.30000*%
%ADD48O,0.90000X1.80000*%
%TA.AperFunction,ViaPad*%
%ADD49C,0.45000*%
G36*
X4950000Y2580000D02*
X2270000D01*
X1740000Y3110000D01*
X50000D01*
Y4950000D01*
X4950000D01*
Y2580000D01*
D02*
G37*
G36*
X2250000Y2500000D02*
X4950000D01*
Y855204D01*
X4945953Y852500D01*
X4929046D01*
X4913426Y846030D01*
X4901470Y834074D01*
X4895000Y818454D01*
Y801546D01*
X4901470Y785926D01*
X4913426Y773970D01*
X4929046Y767500D01*
X4945953D01*
X4950000Y764796D01*
Y50000D01*
X50000D01*
Y3050000D01*
X1700000D01*
X2250000Y2500000D01*
D02*
G37*
%LPC*%
G36*
X2828454Y4912500D02*
X2811546D01*
X2795926Y4906030D01*
X2783970Y4894074D01*
X2777500Y4878454D01*
Y4861546D01*
X2783970Y4845926D01*
X2795926Y4833970D01*
X2811546Y4827500D01*
X2828454D01*
X2844074Y4833970D01*
X2856030Y4845926D01*
X2862500Y4861546D01*
Y4878454D01*
X2856030Y4894074D01*
X2844074Y4906030D01*
X2828454Y4912500D01*
D02*
G37*
G36*
X2168454Y4802500D02*
X2151546D01*
X2135926Y4796030D01*
X2123970Y4784074D01*
X2117500Y4768454D01*
Y4751546D01*
X2123970Y4735926D01*
X2135926Y4723970D01*
X2151546Y4717500D01*
X2168454D01*
X2184074Y4723970D01*
X2196030Y4735926D01*
X2202500Y4751546D01*
Y4768454D01*
X2196030Y4784074D01*
X2184074Y4796030D01*
X2168454Y4802500D01*
D02*
G37*
G36*
X413507Y4866000D02*
X388493D01*
X364332Y4859525D01*
X342669Y4847019D01*
X324981Y4829331D01*
X312474Y4807668D01*
X306000Y4783507D01*
Y4758493D01*
X312474Y4734331D01*
X324981Y4712669D01*
X342669Y4694981D01*
X364332Y4682474D01*
X388493Y4676000D01*
X413507D01*
X437668Y4682474D01*
X459331Y4694981D01*
X477019Y4712669D01*
X489526Y4734331D01*
X496000Y4758493D01*
Y4783507D01*
X489526Y4807668D01*
X477019Y4829331D01*
X459331Y4847019D01*
X437668Y4859525D01*
X413507Y4866000D01*
D02*
G37*
G36*
X3258454Y4732500D02*
X3241546D01*
X3225926Y4726030D01*
X3213970Y4714074D01*
X3207500Y4698454D01*
Y4681546D01*
X3213970Y4665926D01*
X3225926Y4653970D01*
X3241546Y4647500D01*
X3258454D01*
X3274074Y4653970D01*
X3286030Y4665926D01*
X3292500Y4681546D01*
Y4698454D01*
X3286030Y4714074D01*
X3274074Y4726030D01*
X3258454Y4732500D01*
D02*
G37*
G36*
X4536191Y4760000D02*
X4513810D01*
X4492191Y4754207D01*
X4472809Y4743017D01*
X4456983Y4727191D01*
X4445793Y4707809D01*
X4440000Y4686191D01*
Y4663810D01*
X4445793Y4642191D01*
X4456983Y4622809D01*
X4472809Y4606983D01*
X4492191Y4595793D01*
X4513810Y4590000D01*
X4536191D01*
X4557809Y4595793D01*
X4577191Y4606983D01*
X4593017Y4622809D01*
X4604207Y4642191D01*
X4610000Y4663810D01*
Y4686191D01*
X4604207Y4707809D01*
X4593017Y4727191D01*
X4577191Y4743017D01*
X4557809Y4754207D01*
X4536191Y4760000D01*
D02*
G37*
G36*
X3268454Y4632500D02*
X3251546D01*
X3235926Y4626030D01*
X3223970Y4614074D01*
X3217500Y4598454D01*
Y4581546D01*
X3223970Y4565926D01*
X3235926Y4553970D01*
X3251546Y4547500D01*
X3268454D01*
X3284074Y4553970D01*
X3296030Y4565926D01*
X3302500Y4581546D01*
Y4598454D01*
X3296030Y4614074D01*
X3284074Y4626030D01*
X3268454Y4632500D01*
D02*
G37*
G36*
X4790191Y4633000D02*
X4767810D01*
X4746191Y4627207D01*
X4726809Y4616017D01*
X4710983Y4600191D01*
X4699793Y4580809D01*
X4694000Y4559191D01*
Y4536810D01*
X4699793Y4515191D01*
X4710983Y4495809D01*
X4726809Y4479983D01*
X4746191Y4468793D01*
X4767810Y4463000D01*
X4790191D01*
X4811809Y4468793D01*
X4831191Y4479983D01*
X4847017Y4495809D01*
X4858207Y4515191D01*
X4864000Y4536810D01*
Y4559191D01*
X4858207Y4580809D01*
X4847017Y4600191D01*
X4831191Y4616017D01*
X4811809Y4627207D01*
X4790191Y4633000D01*
D02*
G37*
G36*
X486191Y4589000D02*
X463810D01*
X442191Y4583207D01*
X422809Y4572017D01*
X406983Y4556191D01*
X395793Y4536809D01*
X390000Y4515190D01*
Y4492809D01*
X395793Y4471191D01*
X406983Y4451809D01*
X422809Y4435983D01*
X442191Y4424793D01*
X463810Y4419000D01*
X486191D01*
X507809Y4424793D01*
X527191Y4435983D01*
X543017Y4451809D01*
X554207Y4471191D01*
X560000Y4492809D01*
Y4515190D01*
X554207Y4536809D01*
X543017Y4556191D01*
X527191Y4572017D01*
X507809Y4583207D01*
X486191Y4589000D01*
D02*
G37*
G36*
X4078454Y4502500D02*
X4061546D01*
X4045926Y4496030D01*
X4033970Y4484074D01*
X4027500Y4468454D01*
Y4451546D01*
X4033970Y4435926D01*
X4045926Y4423970D01*
X4061546Y4417500D01*
X4078454D01*
X4094074Y4423970D01*
X4106030Y4435926D01*
X4112500Y4451546D01*
Y4468454D01*
X4106030Y4484074D01*
X4094074Y4496030D01*
X4078454Y4502500D01*
D02*
G37*
G36*
X3688454Y4462500D02*
X3671546D01*
X3655926Y4456030D01*
X3643970Y4444074D01*
X3637500Y4428454D01*
Y4411546D01*
X3643970Y4395926D01*
X3655926Y4383970D01*
X3671546Y4377500D01*
X3688454D01*
X3704074Y4383970D01*
X3716030Y4395926D01*
X3722500Y4411546D01*
Y4428454D01*
X3716030Y4444074D01*
X3704074Y4456030D01*
X3688454Y4462500D01*
D02*
G37*
G36*
X4536191Y4506000D02*
X4513810D01*
X4492191Y4500207D01*
X4472809Y4489017D01*
X4456983Y4473191D01*
X4445793Y4453809D01*
X4440000Y4432191D01*
Y4409810D01*
X4445793Y4388191D01*
X4456983Y4368809D01*
X4472809Y4352983D01*
X4492191Y4341793D01*
X4513810Y4336000D01*
X4536191D01*
X4557809Y4341793D01*
X4577191Y4352983D01*
X4593017Y4368809D01*
X4604207Y4388191D01*
X4610000Y4409810D01*
Y4432191D01*
X4604207Y4453809D01*
X4593017Y4473191D01*
X4577191Y4489017D01*
X4557809Y4500207D01*
X4536191Y4506000D01*
D02*
G37*
G36*
X232191Y4462000D02*
X209810D01*
X188191Y4456207D01*
X168809Y4445017D01*
X152983Y4429191D01*
X141793Y4409809D01*
X136000Y4388190D01*
Y4365809D01*
X141793Y4344191D01*
X152983Y4324809D01*
X168809Y4308983D01*
X188191Y4297793D01*
X209810Y4292000D01*
X232191D01*
X253809Y4297793D01*
X273191Y4308983D01*
X289017Y4324809D01*
X300207Y4344191D01*
X306000Y4365809D01*
Y4388190D01*
X300207Y4409809D01*
X289017Y4429191D01*
X273191Y4445017D01*
X253809Y4456207D01*
X232191Y4462000D01*
D02*
G37*
G36*
X486191Y4335000D02*
X463810D01*
X442191Y4329207D01*
X422809Y4318017D01*
X406983Y4302191D01*
X395793Y4282809D01*
X390000Y4261190D01*
Y4238809D01*
X395793Y4217191D01*
X406983Y4197809D01*
X422809Y4181983D01*
X442191Y4170793D01*
X463810Y4165000D01*
X486191D01*
X507809Y4170793D01*
X527191Y4181983D01*
X543017Y4197809D01*
X554207Y4217191D01*
X560000Y4238809D01*
Y4261190D01*
X554207Y4282809D01*
X543017Y4302191D01*
X527191Y4318017D01*
X507809Y4329207D01*
X486191Y4335000D01*
D02*
G37*
G36*
X3533454Y4217500D02*
X3516546D01*
X3500926Y4211030D01*
X3488970Y4199074D01*
X3482500Y4183454D01*
Y4166546D01*
X3488970Y4150926D01*
X3500926Y4138970D01*
X3516546Y4132500D01*
X3533454D01*
X3549074Y4138970D01*
X3561030Y4150926D01*
X3567500Y4166546D01*
Y4183454D01*
X3561030Y4199074D01*
X3549074Y4211030D01*
X3533454Y4217500D01*
D02*
G37*
G36*
X4611507Y4249000D02*
X4586493D01*
X4562332Y4242526D01*
X4540669Y4230019D01*
X4522982Y4212331D01*
X4510475Y4190669D01*
X4504000Y4166507D01*
Y4141493D01*
X4510475Y4117332D01*
X4522982Y4095669D01*
X4540669Y4077981D01*
X4562332Y4065474D01*
X4586493Y4059000D01*
X4611507D01*
X4635669Y4065474D01*
X4657331Y4077981D01*
X4675019Y4095669D01*
X4687526Y4117332D01*
X4694000Y4141493D01*
Y4166507D01*
X4687526Y4190669D01*
X4675019Y4212331D01*
X4657331Y4230019D01*
X4635669Y4242526D01*
X4611507Y4249000D01*
D02*
G37*
G36*
X3788454Y4222500D02*
X3771546D01*
X3755926Y4216030D01*
X3743970Y4204074D01*
X3737500Y4188454D01*
Y4171546D01*
X3743970Y4155926D01*
X3755926Y4143970D01*
X3770054Y4138118D01*
X3773004Y4131621D01*
X3774697Y4124800D01*
X3773970Y4124074D01*
X3767500Y4108454D01*
Y4091546D01*
X3773970Y4075926D01*
X3785926Y4063970D01*
X3801546Y4057500D01*
X3818454D01*
X3834074Y4063970D01*
X3846030Y4075926D01*
X3852500Y4091546D01*
Y4108454D01*
X3846030Y4124074D01*
X3834074Y4136030D01*
X3819946Y4141881D01*
X3816996Y4148379D01*
X3815304Y4155200D01*
X3816030Y4155926D01*
X3822500Y4171546D01*
Y4188454D01*
X3816030Y4204074D01*
X3804074Y4216030D01*
X3788454Y4222500D01*
D02*
G37*
G36*
X4248454Y4112500D02*
X4231546D01*
X4215926Y4106030D01*
X4203970Y4094074D01*
X4197500Y4078454D01*
Y4061546D01*
X4203970Y4045926D01*
X4215926Y4033970D01*
X4231546Y4027500D01*
X4248454D01*
X4264074Y4033970D01*
X4276030Y4045926D01*
X4282500Y4061546D01*
Y4078454D01*
X4276030Y4094074D01*
X4264074Y4106030D01*
X4248454Y4112500D01*
D02*
G37*
G36*
X2698454Y4032500D02*
X2681546D01*
X2665926Y4026030D01*
X2653970Y4014074D01*
X2647500Y3998454D01*
Y3981546D01*
X2653970Y3965926D01*
X2665926Y3953970D01*
X2681546Y3947500D01*
X2698454D01*
X2714074Y3953970D01*
X2726030Y3965926D01*
X2732500Y3981546D01*
Y3998454D01*
X2726030Y4014074D01*
X2714074Y4026030D01*
X2698454Y4032500D01*
D02*
G37*
G36*
X2408454D02*
X2391546D01*
X2375926Y4026030D01*
X2363970Y4014074D01*
X2357500Y3998454D01*
Y3981546D01*
X2363970Y3965926D01*
X2375926Y3953970D01*
X2391546Y3947500D01*
X2408454D01*
X2424074Y3953970D01*
X2436030Y3965926D01*
X2442500Y3981546D01*
Y3998454D01*
X2436030Y4014074D01*
X2424074Y4026030D01*
X2408454Y4032500D01*
D02*
G37*
G36*
X3308454Y4067500D02*
X3291546D01*
X3275926Y4061030D01*
X3263970Y4049074D01*
X3257500Y4033454D01*
Y4016546D01*
X3263970Y4000926D01*
X3275926Y3988970D01*
X3291546Y3982500D01*
X3304760D01*
X3307407Y3980078D01*
X3311484Y3973925D01*
X3312600Y3970767D01*
X3307500Y3958454D01*
Y3941546D01*
X3313970Y3925926D01*
X3325926Y3913970D01*
X3341546Y3907500D01*
X3347501D01*
X3357500Y3898453D01*
Y3881546D01*
X3363970Y3865926D01*
X3375926Y3853970D01*
X3391546Y3847500D01*
X3408454D01*
X3424074Y3853970D01*
X3436030Y3865926D01*
X3442500Y3881546D01*
Y3898454D01*
X3436030Y3914074D01*
X3424074Y3926030D01*
X3408454Y3932500D01*
X3402499D01*
X3392500Y3941547D01*
Y3958454D01*
X3386030Y3974074D01*
X3374074Y3986030D01*
X3358454Y3992500D01*
X3345239D01*
X3342593Y3994922D01*
X3338516Y4001075D01*
X3337399Y4004233D01*
X3342500Y4016546D01*
Y4033454D01*
X3336030Y4049074D01*
X3324074Y4061030D01*
X3308454Y4067500D01*
D02*
G37*
G36*
X2938454Y3932500D02*
X2921546D01*
X2905926Y3926030D01*
X2893970Y3914074D01*
X2887500Y3898454D01*
Y3881546D01*
X2893970Y3865926D01*
X2905926Y3853970D01*
X2921546Y3847500D01*
X2938454D01*
X2954074Y3853970D01*
X2966030Y3865926D01*
X2972500Y3881546D01*
Y3898454D01*
X2966030Y3914074D01*
X2954074Y3926030D01*
X2938454Y3932500D01*
D02*
G37*
G36*
X413507Y3987000D02*
X388493D01*
X364332Y3980526D01*
X342669Y3968019D01*
X324981Y3950331D01*
X312474Y3928669D01*
X306000Y3904507D01*
Y3879493D01*
X312474Y3855332D01*
X324981Y3833669D01*
X342669Y3815981D01*
X364332Y3803474D01*
X388493Y3797000D01*
X413507D01*
X437668Y3803474D01*
X459331Y3815981D01*
X477019Y3833669D01*
X489526Y3855332D01*
X496000Y3879493D01*
Y3904507D01*
X489526Y3928669D01*
X477019Y3950331D01*
X459331Y3968019D01*
X437668Y3980526D01*
X413507Y3987000D01*
D02*
G37*
G36*
X1378454Y3872500D02*
X1361546D01*
X1345926Y3866030D01*
X1333970Y3854074D01*
X1327500Y3838454D01*
Y3821546D01*
X1333970Y3805926D01*
X1345926Y3793970D01*
X1361546Y3787500D01*
X1378454D01*
X1394074Y3793970D01*
X1406030Y3805926D01*
X1412500Y3821546D01*
Y3838454D01*
X1406030Y3854074D01*
X1394074Y3866030D01*
X1378454Y3872500D01*
D02*
G37*
G36*
X4278454Y3842500D02*
X4261546D01*
X4245926Y3836030D01*
X4233970Y3824074D01*
X4227500Y3808454D01*
Y3791546D01*
X4233970Y3775926D01*
X4245926Y3763970D01*
X4261546Y3757500D01*
X4278454D01*
X4294074Y3763970D01*
X4306030Y3775926D01*
X4312500Y3791546D01*
Y3808454D01*
X4306030Y3824074D01*
X4294074Y3836030D01*
X4278454Y3842500D01*
D02*
G37*
G36*
X3798087Y3913750D02*
X3781180D01*
X3765559Y3907279D01*
X3753604Y3895324D01*
X3747133Y3879703D01*
Y3862796D01*
X3753604Y3847176D01*
X3758053Y3842726D01*
X3764747Y3834237D01*
X3758053Y3826133D01*
X3753414Y3821493D01*
X3746944Y3805873D01*
Y3788965D01*
X3753414Y3773345D01*
X3765369Y3761389D01*
X3780990Y3754919D01*
X3797897D01*
X3813518Y3761389D01*
X3825473Y3773345D01*
X3831943Y3788965D01*
Y3805873D01*
X3825473Y3821493D01*
X3821024Y3825943D01*
X3814330Y3834431D01*
X3821024Y3842536D01*
X3825663Y3847176D01*
X3832133Y3862796D01*
Y3879703D01*
X3825663Y3895324D01*
X3813707Y3907279D01*
X3798087Y3913750D01*
D02*
G37*
G36*
X3558454Y3792500D02*
X3541546D01*
X3525926Y3786030D01*
X3513970Y3774074D01*
X3507500Y3758454D01*
Y3741546D01*
X3513970Y3725926D01*
X3525926Y3713970D01*
X3541546Y3707500D01*
X3558454D01*
X3574074Y3713970D01*
X3586030Y3725926D01*
X3592500Y3741546D01*
Y3758454D01*
X3586030Y3774074D01*
X3574074Y3786030D01*
X3558454Y3792500D01*
D02*
G37*
G36*
X3118454Y3772500D02*
X3101546D01*
X3085926Y3766030D01*
X3073970Y3754074D01*
X3067500Y3738454D01*
Y3721546D01*
X3073970Y3705926D01*
X3085926Y3693970D01*
X3101546Y3687500D01*
X3118454D01*
X3134074Y3693970D01*
X3146030Y3705926D01*
X3152500Y3721546D01*
Y3738454D01*
X3146030Y3754074D01*
X3134074Y3766030D01*
X3118454Y3772500D01*
D02*
G37*
G36*
X3208454Y3667500D02*
X3191546D01*
X3175926Y3661030D01*
X3163970Y3649074D01*
X3157500Y3633454D01*
Y3616546D01*
X3163970Y3600926D01*
X3175926Y3588970D01*
X3191546Y3582500D01*
X3208454D01*
X3224074Y3588970D01*
X3236030Y3600926D01*
X3242500Y3616546D01*
Y3633454D01*
X3236030Y3649074D01*
X3224074Y3661030D01*
X3208454Y3667500D01*
D02*
G37*
G36*
X486191Y3710000D02*
X463810D01*
X442191Y3704207D01*
X422809Y3693017D01*
X406983Y3677191D01*
X395793Y3657809D01*
X390000Y3636191D01*
Y3613810D01*
X395793Y3592191D01*
X406983Y3572809D01*
X422809Y3556983D01*
X442191Y3545793D01*
X463810Y3540000D01*
X486191D01*
X507809Y3545793D01*
X527191Y3556983D01*
X543017Y3572809D01*
X554207Y3592191D01*
X560000Y3613810D01*
Y3636191D01*
X554207Y3657809D01*
X543017Y3677191D01*
X527191Y3693017D01*
X507809Y3704207D01*
X486191Y3710000D01*
D02*
G37*
G36*
X3308454Y3542500D02*
X3291546D01*
X3275926Y3536030D01*
X3263970Y3524074D01*
X3257500Y3508454D01*
Y3491546D01*
X3263970Y3475926D01*
X3275926Y3463970D01*
X3291546Y3457500D01*
X3308454D01*
X3324074Y3463970D01*
X3336030Y3475926D01*
X3342500Y3491546D01*
Y3508454D01*
X3336030Y3524074D01*
X3324074Y3536030D01*
X3308454Y3542500D01*
D02*
G37*
G36*
X232191Y3583000D02*
X209810D01*
X188191Y3577207D01*
X168809Y3566017D01*
X152983Y3550191D01*
X141793Y3530809D01*
X136000Y3509191D01*
Y3486810D01*
X141793Y3465191D01*
X152983Y3445809D01*
X168809Y3429983D01*
X188191Y3418793D01*
X209810Y3413000D01*
X232191D01*
X253809Y3418793D01*
X273191Y3429983D01*
X289017Y3445809D01*
X300207Y3465191D01*
X306000Y3486810D01*
Y3509191D01*
X300207Y3530809D01*
X289017Y3550191D01*
X273191Y3566017D01*
X253809Y3577207D01*
X232191Y3583000D01*
D02*
G37*
G36*
X2768454Y3452500D02*
X2751546D01*
X2735926Y3446030D01*
X2723970Y3434074D01*
X2717500Y3418454D01*
Y3401546D01*
X2723970Y3385926D01*
X2735926Y3373970D01*
X2751546Y3367500D01*
X2768454D01*
X2784074Y3373970D01*
X2796030Y3385926D01*
X2802500Y3401546D01*
Y3418454D01*
X2796030Y3434074D01*
X2784074Y3446030D01*
X2768454Y3452500D01*
D02*
G37*
G36*
X4278454Y3392500D02*
X4261546D01*
X4245926Y3386030D01*
X4233970Y3374074D01*
X4227500Y3358454D01*
Y3341546D01*
X4233970Y3325926D01*
X4245926Y3313970D01*
X4261546Y3307500D01*
X4278454D01*
X4294074Y3313970D01*
X4306030Y3325926D01*
X4312500Y3341546D01*
Y3358454D01*
X4306030Y3374074D01*
X4294074Y3386030D01*
X4278454Y3392500D01*
D02*
G37*
G36*
X486191Y3456000D02*
X463810D01*
X442191Y3450207D01*
X422809Y3439017D01*
X406983Y3423191D01*
X395793Y3403809D01*
X390000Y3382191D01*
Y3359810D01*
X395793Y3338191D01*
X406983Y3318809D01*
X422809Y3302983D01*
X442191Y3291793D01*
X463810Y3286000D01*
X486191D01*
X507809Y3291793D01*
X527191Y3302983D01*
X543017Y3318809D01*
X554207Y3338191D01*
X560000Y3359810D01*
Y3382191D01*
X554207Y3403809D01*
X543017Y3423191D01*
X527191Y3439017D01*
X507809Y3450207D01*
X486191Y3456000D01*
D02*
G37*
G36*
X3878454Y3362500D02*
X3861546D01*
X3845926Y3356030D01*
X3833970Y3344074D01*
X3827500Y3328454D01*
Y3311546D01*
X3833970Y3295926D01*
X3845926Y3283970D01*
X3861546Y3277500D01*
X3878454D01*
X3894074Y3283970D01*
X3906030Y3295926D01*
X3912500Y3311546D01*
Y3328454D01*
X3906030Y3344074D01*
X3894074Y3356030D01*
X3878454Y3362500D01*
D02*
G37*
G36*
X4378454Y3285531D02*
X4361546D01*
X4345926Y3279061D01*
X4333970Y3267106D01*
X4327500Y3251485D01*
Y3234578D01*
X4333970Y3218957D01*
X4345926Y3207002D01*
X4361546Y3200532D01*
X4378454D01*
X4394074Y3207002D01*
X4406030Y3218957D01*
X4412500Y3234578D01*
Y3251485D01*
X4406030Y3267106D01*
X4394074Y3279061D01*
X4378454Y3285531D01*
D02*
G37*
G36*
X4218454Y3262500D02*
X4201546D01*
X4185926Y3256030D01*
X4173970Y3244074D01*
X4167500Y3228454D01*
Y3211546D01*
X4173970Y3195926D01*
X4185926Y3183970D01*
X4201546Y3177500D01*
X4218454D01*
X4234074Y3183970D01*
X4246030Y3195926D01*
X4252500Y3211546D01*
Y3228454D01*
X4246030Y3244074D01*
X4234074Y3256030D01*
X4218454Y3262500D01*
D02*
G37*
G36*
X4768454Y3232500D02*
X4751546D01*
X4735926Y3226030D01*
X4723970Y3214074D01*
X4717500Y3198454D01*
Y3181546D01*
X4723970Y3165926D01*
X4735926Y3153970D01*
X4751546Y3147500D01*
X4768454D01*
X4784074Y3153970D01*
X4796030Y3165926D01*
X4802500Y3181546D01*
Y3198454D01*
X4796030Y3214074D01*
X4784074Y3226030D01*
X4768454Y3232500D01*
D02*
G37*
G36*
X3158454Y3192500D02*
X3141546D01*
X3125926Y3186030D01*
X3113970Y3174074D01*
X3107500Y3158454D01*
Y3141546D01*
X3113970Y3125926D01*
X3125926Y3113970D01*
X3141546Y3107500D01*
X3158454D01*
X3174074Y3113970D01*
X3186030Y3125926D01*
X3192500Y3141546D01*
Y3158454D01*
X3186030Y3174074D01*
X3174074Y3186030D01*
X3158454Y3192500D01*
D02*
G37*
G36*
X918454Y2482500D02*
X901546D01*
X885926Y2476030D01*
X873970Y2464074D01*
X867500Y2448454D01*
Y2431546D01*
X873970Y2415926D01*
X884896Y2405000D01*
X873970Y2394074D01*
X867500Y2378454D01*
Y2361546D01*
X873970Y2345926D01*
X885926Y2333971D01*
X888892Y2318995D01*
X883970Y2314074D01*
X877500Y2298454D01*
X868538Y2292465D01*
X868454Y2292500D01*
X851547D01*
X842019Y2299615D01*
X836030Y2314074D01*
X824084Y2326020D01*
X816479Y2333665D01*
X816030Y2335926D01*
X822500Y2351546D01*
Y2368454D01*
X816030Y2384074D01*
X808179Y2391924D01*
X805427Y2400000D01*
X808179Y2408076D01*
X816030Y2415926D01*
X822500Y2431546D01*
Y2448454D01*
X816030Y2464074D01*
X804074Y2476030D01*
X788454Y2482500D01*
X771546D01*
X755926Y2476030D01*
X743970Y2464074D01*
X737500Y2448454D01*
Y2431546D01*
X743970Y2415926D01*
X751820Y2408076D01*
X754573Y2400000D01*
X751820Y2391924D01*
X743970Y2384074D01*
X737500Y2368454D01*
Y2351546D01*
X743970Y2335926D01*
X755916Y2323980D01*
X763520Y2316335D01*
X763970Y2314074D01*
X757500Y2298454D01*
X748537Y2292465D01*
X748454Y2292500D01*
X731547D01*
X722019Y2299615D01*
X716030Y2314074D01*
X704074Y2326030D01*
X688454Y2332500D01*
X671546D01*
X655926Y2326030D01*
X643970Y2314074D01*
X637500Y2298454D01*
Y2281546D01*
X643970Y2265926D01*
X655926Y2253970D01*
X671546Y2247500D01*
X688453D01*
X697981Y2240385D01*
X703970Y2225926D01*
X715926Y2213970D01*
X731546Y2207500D01*
X748454D01*
X764074Y2213970D01*
X776030Y2225926D01*
X782500Y2241546D01*
X791462Y2247535D01*
X791546Y2247500D01*
X808453D01*
X817981Y2240385D01*
X823970Y2225926D01*
X835926Y2213970D01*
X851546Y2207500D01*
X868454D01*
X884074Y2213970D01*
X896030Y2225926D01*
X902500Y2241546D01*
X911462Y2247535D01*
X911546Y2247500D01*
X928453D01*
X937981Y2240385D01*
X943970Y2225926D01*
X955926Y2213970D01*
X971546Y2207500D01*
X981643D01*
X990476Y2195638D01*
X987500Y2188454D01*
Y2171546D01*
X993971Y2155926D01*
X1002804Y2147092D01*
X1004756Y2139304D01*
X1002804Y2131517D01*
X993971Y2122683D01*
X987500Y2107063D01*
Y2090155D01*
X993971Y2074535D01*
X1002804Y2065701D01*
X1004756Y2057913D01*
X1002804Y2050126D01*
X993971Y2041292D01*
X987500Y2025672D01*
Y2008764D01*
X993971Y1993144D01*
X1005926Y1981188D01*
X1021547Y1974718D01*
X1038454D01*
X1054074Y1981188D01*
X1066030Y1993144D01*
X1072500Y2008764D01*
Y2025672D01*
X1066030Y2041292D01*
X1057196Y2050126D01*
X1055244Y2057914D01*
X1057196Y2065701D01*
X1066030Y2074535D01*
X1072500Y2090155D01*
Y2107063D01*
X1066030Y2122683D01*
X1057196Y2131517D01*
X1055244Y2139305D01*
X1057196Y2147092D01*
X1066030Y2155926D01*
X1072500Y2171546D01*
Y2188454D01*
X1066030Y2204074D01*
X1054074Y2216030D01*
X1038454Y2222500D01*
X1028357D01*
X1019524Y2234362D01*
X1022500Y2241546D01*
Y2258454D01*
X1016030Y2274074D01*
X1004074Y2286030D01*
X988454Y2292500D01*
X971547D01*
X962019Y2299615D01*
X956030Y2314074D01*
X944074Y2326029D01*
X941108Y2341005D01*
X946030Y2345926D01*
X952500Y2361546D01*
Y2378454D01*
X946030Y2394074D01*
X935104Y2405000D01*
X946030Y2415926D01*
X952500Y2431546D01*
Y2448454D01*
X946030Y2464074D01*
X934074Y2476030D01*
X918454Y2482500D01*
D02*
G37*
G36*
X4128454Y2212500D02*
X4111546D01*
X4095926Y2206030D01*
X4083970Y2194074D01*
X4077500Y2178454D01*
Y2161546D01*
X4083970Y2145926D01*
X4095926Y2133970D01*
X4111546Y2127500D01*
X4128454D01*
X4144074Y2133970D01*
X4156030Y2145926D01*
X4162500Y2161546D01*
Y2178454D01*
X4156030Y2194074D01*
X4144074Y2206030D01*
X4128454Y2212500D01*
D02*
G37*
G36*
X4258454Y2192500D02*
X4241546D01*
X4225926Y2186030D01*
X4213970Y2174074D01*
X4207500Y2158454D01*
Y2141546D01*
X4213970Y2125926D01*
X4225926Y2113970D01*
X4241546Y2107500D01*
X4258454D01*
X4274074Y2113970D01*
X4286030Y2125926D01*
X4292500Y2141546D01*
Y2158454D01*
X4286030Y2174074D01*
X4274074Y2186030D01*
X4258454Y2192500D01*
D02*
G37*
G36*
X4768454Y2062500D02*
X4751546D01*
X4735926Y2056030D01*
X4723970Y2044074D01*
X4717500Y2028454D01*
Y2011546D01*
X4723970Y1995926D01*
X4735926Y1983970D01*
X4751546Y1977500D01*
X4768454D01*
X4784074Y1983970D01*
X4796030Y1995926D01*
X4802500Y2011546D01*
Y2028454D01*
X4796030Y2044074D01*
X4784074Y2056030D01*
X4768454Y2062500D01*
D02*
G37*
G36*
X3098454D02*
X3081546D01*
X3065926Y2056030D01*
X3053970Y2044074D01*
X3047500Y2028454D01*
Y2011546D01*
X3053970Y1995926D01*
X3065926Y1983970D01*
X3081546Y1977500D01*
X3098454D01*
X3114074Y1983970D01*
X3126030Y1995926D01*
X3132500Y2011546D01*
Y2028454D01*
X3126030Y2044074D01*
X3114074Y2056030D01*
X3098454Y2062500D01*
D02*
G37*
G36*
X2202817Y2058798D02*
X2185909D01*
X2170289Y2052328D01*
X2158333Y2040372D01*
X2151863Y2024752D01*
Y2007845D01*
X2158333Y1992224D01*
X2170289Y1980269D01*
X2185909Y1973798D01*
X2202817D01*
X2218437Y1980269D01*
X2230393Y1992224D01*
X2236863Y2007845D01*
Y2024752D01*
X2230393Y2040372D01*
X2218437Y2052328D01*
X2202817Y2058798D01*
D02*
G37*
G36*
X1828454Y2012500D02*
X1811546D01*
X1795926Y2006030D01*
X1783970Y1994074D01*
X1777500Y1978454D01*
Y1961546D01*
X1783970Y1945926D01*
X1795926Y1933970D01*
X1811546Y1927500D01*
X1828454D01*
X1844074Y1933970D01*
X1856030Y1945926D01*
X1862500Y1961546D01*
Y1978454D01*
X1856030Y1994074D01*
X1844074Y2006030D01*
X1828454Y2012500D01*
D02*
G37*
G36*
X4378454Y1952500D02*
X4361546D01*
X4345926Y1946030D01*
X4333970Y1934074D01*
X4327500Y1918454D01*
Y1901546D01*
X4333970Y1885926D01*
X4345926Y1873970D01*
X4361546Y1867500D01*
X4378454D01*
X4394074Y1873970D01*
X4406030Y1885926D01*
X4412500Y1901546D01*
Y1918454D01*
X4406030Y1934074D01*
X4394074Y1946030D01*
X4378454Y1952500D01*
D02*
G37*
G36*
X1756137Y1934816D02*
X1739230D01*
X1723609Y1928346D01*
X1711654Y1916391D01*
X1705184Y1900770D01*
Y1883863D01*
X1711654Y1868242D01*
X1723609Y1856287D01*
X1739230Y1849817D01*
X1756137D01*
X1771758Y1856287D01*
X1783713Y1868242D01*
X1790183Y1883863D01*
Y1900770D01*
X1783713Y1916391D01*
X1771758Y1928346D01*
X1756137Y1934816D01*
D02*
G37*
G36*
X3508454Y1842500D02*
X3491546D01*
X3475926Y1836030D01*
X3463970Y1824074D01*
X3457500Y1808454D01*
Y1791546D01*
X3463970Y1775926D01*
X3475926Y1763970D01*
X3491546Y1757500D01*
X3508454D01*
X3524074Y1763970D01*
X3536030Y1775926D01*
X3542500Y1791546D01*
Y1808454D01*
X3536030Y1824074D01*
X3524074Y1836030D01*
X3508454Y1842500D01*
D02*
G37*
G36*
X2042696Y1776742D02*
X2025789D01*
X2010168Y1770272D01*
X1998213Y1758317D01*
X1991743Y1742696D01*
Y1725789D01*
X1998213Y1710169D01*
X2010168Y1698213D01*
X2025789Y1691743D01*
X2042696D01*
X2058317Y1698213D01*
X2070272Y1710169D01*
X2076742Y1725789D01*
Y1742696D01*
X2070272Y1758317D01*
X2058317Y1770272D01*
X2042696Y1776742D01*
D02*
G37*
G36*
X1858454Y947500D02*
X1841546D01*
X1825926Y941030D01*
X1813970Y929074D01*
X1811873Y924011D01*
X1798127D01*
X1796030Y929074D01*
X1784074Y941030D01*
X1768454Y947500D01*
X1751546D01*
X1735926Y941030D01*
X1723970Y929074D01*
X1717500Y913454D01*
Y896546D01*
X1723970Y880926D01*
X1735926Y868970D01*
X1751546Y862500D01*
X1768454D01*
X1784074Y868970D01*
X1796030Y880926D01*
X1798127Y885989D01*
X1811873D01*
X1813970Y880926D01*
X1825926Y868970D01*
X1841546Y862500D01*
X1858454D01*
X1874074Y868970D01*
X1886030Y880926D01*
X1892500Y896546D01*
Y913454D01*
X1886030Y929074D01*
X1874074Y941030D01*
X1858454Y947500D01*
D02*
G37*
G36*
X4850953D02*
X4834046D01*
X4818426Y941030D01*
X4806470Y929074D01*
X4800000Y913454D01*
X4787500D01*
X4781030Y929074D01*
X4769074Y941030D01*
X4753454Y947500D01*
X4736546D01*
X4720926Y941030D01*
X4708970Y929074D01*
X4702500Y913454D01*
Y896546D01*
X4708970Y880926D01*
X4720926Y868970D01*
X4736546Y862500D01*
X4753454D01*
X4769074Y868970D01*
X4781030Y880926D01*
X4787500Y896546D01*
X4800000D01*
X4806470Y880926D01*
X4818426Y868970D01*
X4834046Y862500D01*
X4850953D01*
X4866574Y868970D01*
X4878529Y880926D01*
X4885000Y896546D01*
Y913454D01*
X4878529Y929074D01*
X4866574Y941030D01*
X4850953Y947500D01*
D02*
G37*
G36*
X4629704D02*
X4612796D01*
X4597176Y941030D01*
X4585220Y929074D01*
X4578750Y913454D01*
Y896546D01*
X4585220Y880926D01*
X4597176Y868970D01*
X4612796Y862500D01*
X4629704D01*
X4645324Y868970D01*
X4657280Y880926D01*
X4663750Y896546D01*
Y913454D01*
X4657280Y929074D01*
X4645324Y941030D01*
X4629704Y947500D01*
D02*
G37*
G36*
X3350953D02*
X3334046D01*
X3318426Y941030D01*
X3306470Y929074D01*
X3300000Y913454D01*
Y896546D01*
X3306470Y880926D01*
X3318426Y868970D01*
X3334046Y862500D01*
X3350953D01*
X3366574Y868970D01*
X3378529Y880926D01*
X3385000Y896546D01*
Y913454D01*
X3378529Y929074D01*
X3366574Y941030D01*
X3350953Y947500D01*
D02*
G37*
G36*
X3235954D02*
X3219046D01*
X3203426Y941030D01*
X3191470Y929074D01*
X3185000Y913454D01*
Y896546D01*
X3191470Y880926D01*
X3203426Y868970D01*
X3219046Y862500D01*
X3235954D01*
X3251574Y868970D01*
X3263530Y880926D01*
X3270000Y896546D01*
Y913454D01*
X3263530Y929074D01*
X3251574Y941030D01*
X3235954Y947500D01*
D02*
G37*
G36*
X3129704D02*
X3112796D01*
X3097176Y941030D01*
X3085220Y929074D01*
X3078750Y913454D01*
Y896546D01*
X3085220Y880926D01*
X3097176Y868970D01*
X3112796Y862500D01*
X3129704D01*
X3145324Y868970D01*
X3157280Y880926D01*
X3163750Y896546D01*
Y913454D01*
X3157280Y929074D01*
X3145324Y941030D01*
X3129704Y947500D01*
D02*
G37*
G36*
X1653454D02*
X1636546D01*
X1620926Y941030D01*
X1608970Y929074D01*
X1602500Y913454D01*
Y896546D01*
X1608970Y880926D01*
X1620926Y868970D01*
X1636546Y862500D01*
X1653454D01*
X1669074Y868970D01*
X1681030Y880926D01*
X1687500Y896546D01*
Y913454D01*
X1681030Y929074D01*
X1669074Y941030D01*
X1653454Y947500D01*
D02*
G37*
G36*
X1934704Y871250D02*
X1917797D01*
X1902176Y864780D01*
X1890221Y852824D01*
X1883750Y837204D01*
Y820296D01*
X1890221Y804676D01*
X1902176Y792720D01*
X1917797Y786250D01*
X1934704D01*
X1950324Y792720D01*
X1962280Y804676D01*
X1968750Y820296D01*
Y837204D01*
X1962280Y852824D01*
X1950324Y864780D01*
X1934704Y871250D01*
D02*
G37*
G36*
X3435954Y862500D02*
X3419046D01*
X3403426Y856030D01*
X3391470Y844074D01*
X3385000Y828454D01*
Y811546D01*
X3391470Y795926D01*
X3403426Y783970D01*
X3419046Y777500D01*
X3435954D01*
X3451574Y783970D01*
X3463530Y795926D01*
X3470000Y811546D01*
Y828454D01*
X3463530Y844074D01*
X3451574Y856030D01*
X3435954Y862500D01*
D02*
G37*
G36*
X413507Y962000D02*
X388493D01*
X364332Y955526D01*
X342669Y943019D01*
X324981Y925331D01*
X312474Y903668D01*
X306000Y879507D01*
Y854493D01*
X312474Y830332D01*
X324981Y808669D01*
X342669Y790981D01*
X364332Y778474D01*
X388493Y772000D01*
X413507D01*
X437668Y778474D01*
X459331Y790981D01*
X477019Y808669D01*
X489526Y830332D01*
X496000Y854493D01*
Y879507D01*
X489526Y903668D01*
X477019Y925331D01*
X459331Y943019D01*
X437668Y955526D01*
X413507Y962000D01*
D02*
G37*
G36*
X486191Y685000D02*
X463810D01*
X442191Y679207D01*
X422809Y668017D01*
X406983Y652191D01*
X395793Y632809D01*
X390000Y611191D01*
Y588810D01*
X395793Y567191D01*
X406983Y547809D01*
X422809Y531983D01*
X442191Y520793D01*
X463810Y515000D01*
X486191D01*
X507809Y520793D01*
X527191Y531983D01*
X543017Y547809D01*
X554207Y567191D01*
X560000Y588810D01*
Y611191D01*
X554207Y632809D01*
X543017Y652191D01*
X527191Y668017D01*
X507809Y679207D01*
X486191Y685000D01*
D02*
G37*
G36*
X232191Y558000D02*
X209810D01*
X188191Y552207D01*
X168809Y541017D01*
X152983Y525191D01*
X141793Y505809D01*
X136000Y484191D01*
Y461810D01*
X141793Y440191D01*
X152983Y420809D01*
X168809Y404983D01*
X188191Y393793D01*
X209810Y388000D01*
X232191D01*
X253809Y393793D01*
X273191Y404983D01*
X289017Y420809D01*
X300207Y440191D01*
X306000Y461810D01*
Y484191D01*
X300207Y505809D01*
X289017Y525191D01*
X273191Y541017D01*
X253809Y552207D01*
X232191Y558000D01*
D02*
G37*
G36*
X486191Y431000D02*
X463810D01*
X442191Y425207D01*
X422809Y414017D01*
X406983Y398191D01*
X395793Y378809D01*
X390000Y357191D01*
Y334810D01*
X395793Y313191D01*
X406983Y293809D01*
X422809Y277983D01*
X442191Y266793D01*
X463810Y261000D01*
X486191D01*
X507809Y266793D01*
X527191Y277983D01*
X543017Y293809D01*
X554207Y313191D01*
X560000Y334810D01*
Y357191D01*
X554207Y378809D01*
X543017Y398191D01*
X527191Y414017D01*
X507809Y425207D01*
X486191Y431000D01*
D02*
G37*
%LPD*%
D47*
X475000Y346000D02*
D03*
X221000Y473000D02*
D03*
X475000Y600000D02*
D03*
X221000Y727000D02*
D03*
X4525000Y4675000D02*
D03*
X4779000Y4548000D02*
D03*
X4525000Y4421000D02*
D03*
X4779000Y4294000D02*
D03*
X475000Y3371000D02*
D03*
X221000Y3498000D02*
D03*
X475000Y3625000D02*
D03*
X221000Y3752000D02*
D03*
X475000Y4250000D02*
D03*
X221000Y4377000D02*
D03*
X475000Y4504000D02*
D03*
X221000Y4631000D02*
D03*
D48*
X1170000Y4850000D02*
D03*
X1830000D02*
D03*
D49*
X2325000Y942500D02*
D03*
X1325000Y1900000D02*
D03*
X1320000Y4570000D02*
D03*
X430000Y1730000D02*
D03*
X802500Y2025000D02*
D03*
X3690000Y1900000D02*
D03*
X972655Y1422655D02*
D03*
X1870000Y1330000D02*
D03*
X4850000Y1380000D02*
D03*
X3900000Y1430000D02*
D03*
X3510000Y1330000D02*
D03*
X2400000Y1490000D02*
D03*
X1300000Y4305200D02*
D03*
X2400000Y3990000D02*
D03*
X1370000Y3830000D02*
D03*
X2160000Y4760000D02*
D03*
X3260000Y4590000D02*
D03*
X2930000Y3890000D02*
D03*
X3870000Y3320000D02*
D03*
X3970000Y4520000D02*
D03*
X1370000Y3290000D02*
D03*
X2410000Y3430000D02*
D03*
X2220000D02*
D03*
X2690000Y3990000D02*
D03*
X1747684Y1892317D02*
D03*
X2810000Y4500000D02*
D03*
X1350000Y3700000D02*
D03*
Y3570000D02*
D03*
X3550000Y3550000D02*
D03*
X3650000Y3400000D02*
D03*
X4850000Y3525000D02*
D03*
X980000Y2250000D02*
D03*
X920000Y2290000D02*
D03*
X860000Y2250000D02*
D03*
X800000Y2290000D02*
D03*
X1160000Y2410000D02*
D03*
X1230000Y2390000D02*
D03*
X1220000Y2470000D02*
D03*
X2110000Y2460000D02*
D03*
X2870000Y2450000D02*
D03*
X4620000Y2460000D02*
D03*
X4120000Y2170000D02*
D03*
X450000Y2200000D02*
D03*
Y2350000D02*
D03*
X910000Y2440000D02*
D03*
X780000D02*
D03*
X910000Y2370000D02*
D03*
X780000Y2360000D02*
D03*
X680000Y2290000D02*
D03*
X740000Y2250000D02*
D03*
X3860000Y2190000D02*
D03*
X1030000Y2180000D02*
D03*
Y2098609D02*
D03*
Y2017218D02*
D03*
X1510000Y2890000D02*
D03*
X1760000D02*
D03*
X2290000Y1770000D02*
D03*
X300000Y2050000D02*
D03*
Y2350000D02*
D03*
Y2200000D02*
D03*
X150000D02*
D03*
Y2050000D02*
D03*
X450000D02*
D03*
X150000Y2350000D02*
D03*
X4600000Y1540000D02*
D03*
X4200000Y1540000D02*
D03*
X2697500Y1542500D02*
D03*
X1600000Y1540000D02*
D03*
X1200000D02*
D03*
X3102500D02*
D03*
X1760000Y905000D02*
D03*
X1645000D02*
D03*
X3150000Y3150000D02*
D03*
X3090000Y2020000D02*
D03*
X2034243Y1734243D02*
D03*
X2194363Y2016298D02*
D03*
X1820000Y1970000D02*
D03*
X3325000Y990000D02*
D03*
X3227500Y905000D02*
D03*
X2825000Y2750000D02*
D03*
X2150000D02*
D03*
X3400000Y3890000D02*
D03*
X3200000Y3625000D02*
D03*
X3300000Y4025000D02*
D03*
X3350000Y3950000D02*
D03*
X4210000Y3220000D02*
D03*
X3789444Y3797419D02*
D03*
X3789633Y3871250D02*
D03*
X3550000Y3750000D02*
D03*
X3300000Y3500000D02*
D03*
X4370000Y3243032D02*
D03*
X3525000Y4175000D02*
D03*
X3650000Y4500000D02*
D03*
X3680000Y4420000D02*
D03*
X1926250Y828750D02*
D03*
X1850000Y905000D02*
D03*
X4621250D02*
D03*
X4745000D02*
D03*
X4937500Y810000D02*
D03*
X4842500Y905000D02*
D03*
X3427500Y820000D02*
D03*
X3342500Y905000D02*
D03*
X3121250D02*
D03*
X3820000Y975000D02*
D03*
X4810000Y1020000D02*
D03*
X1747500Y990000D02*
D03*
X1525000Y625000D02*
D03*
X1275000D02*
D03*
X1350000Y550000D02*
D03*
X1450000D02*
D03*
X2950000D02*
D03*
X2850000D02*
D03*
X2775000Y625000D02*
D03*
X3025000D02*
D03*
X4450000Y550000D02*
D03*
X4350000D02*
D03*
X4525000Y625000D02*
D03*
X4275000D02*
D03*
X2820000Y4870000D02*
D03*
X770000Y920000D02*
D03*
X4760000Y2020000D02*
D03*
X4370000Y1910000D02*
D03*
X3910000Y2720000D02*
D03*
X2180600Y4497500D02*
D03*
X3580000Y4760000D02*
D03*
X4650000Y3250000D02*
D03*
X2100000Y3300000D02*
D03*
X4760000Y3190000D02*
D03*
X3500000Y1800000D02*
D03*
X4250000Y2150000D02*
D03*
X2760000Y3410000D02*
D03*
X3110000Y3730000D02*
D03*
X4240000Y4070000D02*
D03*
X4270000Y3350000D02*
D03*
X3250000Y4690000D02*
D03*
X3810000Y4100000D02*
D03*
X3780000Y4180000D02*
D03*
X4270000Y3800000D02*
D03*
X4070000Y4460000D02*
D03*
%TF.MD5,99562b21d1c9716437006c79db418a60*%
M02*
