%TF.GenerationSoftware,Altium Limited,Altium Designer,22.11.1 (43)*%
G04 Layer_Physical_Order=1*
G04 Layer_Color=255*
%FSLAX45Y45*%
%MOMM*%
%TF.SameCoordinates,5CE01347-A356-42F5-95A5-03C013D0245E*%
%TF.FilePolarity,Positive*%
%TF.FileFunction,Copper,L1,Top,Signal*%
%TF.Part,Single*%
G01*
G75*
%TA.AperFunction,SMDPad,CuDef*%
%ADD10R,0.53260X1.45610*%
%ADD11R,1.00000X0.70000*%
%ADD12R,4.80000X4.58000*%
%ADD13R,4.00000X4.00000*%
%ADD14R,0.80000X0.80000*%
%ADD15R,0.95000X0.80000*%
%ADD16R,1.05000X0.95000*%
%ADD17R,0.95000X1.05000*%
%ADD18R,0.80000X0.95000*%
%ADD19R,0.60000X1.62000*%
%TA.AperFunction,SMDPad,SMDef*%
%ADD20R,0.60000X0.25000*%
%ADD21R,3.50000X0.50000*%
%ADD22R,1.67500X0.50000*%
%ADD23R,3.50000X1.40000*%
%ADD24R,0.25000X0.60000*%
%TA.AperFunction,SMDPad,CuDef*%
%ADD25R,4.00000X4.00000*%
%ADD26R,1.42000X0.58000*%
G04:AMPARAMS|DCode=27|XSize=1.05mm|YSize=0.95mm|CornerRadius=0mm|HoleSize=0mm|Usage=FLASHONLY|Rotation=45.000|XOffset=0mm|YOffset=0mm|HoleType=Round|Shape=Rectangle|*
%AMROTATEDRECTD27*
4,1,4,-0.03535,-0.70711,-0.70711,-0.03535,0.03535,0.70711,0.70711,0.03535,-0.03535,-0.70711,0.0*
%
%ADD27ROTATEDRECTD27*%

G04:AMPARAMS|DCode=28|XSize=1.05mm|YSize=0.95mm|CornerRadius=0mm|HoleSize=0mm|Usage=FLASHONLY|Rotation=315.000|XOffset=0mm|YOffset=0mm|HoleType=Round|Shape=Rectangle|*
%AMROTATEDRECTD28*
4,1,4,-0.70711,0.03535,-0.03535,0.70711,0.70711,-0.03535,0.03535,-0.70711,-0.70711,0.03535,0.0*
%
%ADD28ROTATEDRECTD28*%

%ADD29R,0.80000X0.80000*%
%ADD30R,2.79400X0.73660*%
%ADD31R,1.00000X0.60000*%
G04:AMPARAMS|DCode=32|XSize=0.5008mm|YSize=1.3589mm|CornerRadius=0mm|HoleSize=0mm|Usage=FLASHONLY|Rotation=45.000|XOffset=0mm|YOffset=0mm|HoleType=Round|Shape=Rectangle|*
%AMROTATEDRECTD32*
4,1,4,0.30338,-0.65750,-0.65750,0.30338,-0.30338,0.65750,0.65750,-0.30338,0.30338,-0.65750,0.0*
%
%ADD32ROTATEDRECTD32*%

G04:AMPARAMS|DCode=33|XSize=0.5008mm|YSize=1.3589mm|CornerRadius=0mm|HoleSize=0mm|Usage=FLASHONLY|Rotation=315.000|XOffset=0mm|YOffset=0mm|HoleType=Round|Shape=Rectangle|*
%AMROTATEDRECTD33*
4,1,4,-0.65750,-0.30338,0.30338,0.65750,0.65750,0.30338,-0.30338,-0.65750,-0.65750,-0.30338,0.0*
%
%ADD33ROTATEDRECTD33*%

%ADD34R,1.90000X1.90000*%
%TA.AperFunction,ConnectorPad*%
%ADD35R,1.60000X1.40000*%
%ADD36R,0.40000X1.35000*%
%TA.AperFunction,Conductor*%
%ADD37C,0.25400*%
%ADD38C,0.33000*%
%ADD39C,0.40000*%
%ADD40C,0.32000*%
%ADD41C,0.35000*%
%ADD42C,0.26111*%
%ADD43C,0.45000*%
%ADD44C,0.20000*%
%ADD45C,0.70000*%
%ADD46C,0.49000*%
%TA.AperFunction,ComponentPad*%
%ADD47C,1.30000*%
%ADD48O,0.90000X1.80000*%
%TA.AperFunction,ViaPad*%
%ADD49C,0.45000*%
G36*
X1387500Y810392D02*
X1225000D01*
X1223030Y810000D01*
X1205000D01*
Y810000D01*
X1200000D01*
X1175000Y785000D01*
Y625000D01*
X1300000Y500000D01*
Y100000D01*
X900000D01*
Y747500D01*
X1011912Y859412D01*
X1069999D01*
X1070000Y859412D01*
X1072956Y860000D01*
X1387500D01*
Y810392D01*
D02*
G37*
G36*
X1575000Y612500D02*
X1482500Y520000D01*
X1480000D01*
Y517500D01*
X1462500Y500000D01*
X1337500D01*
X1320000Y517500D01*
Y520000D01*
X1317500D01*
X1225000Y612500D01*
Y790000D01*
X1575000D01*
Y612500D01*
D02*
G37*
G36*
X1900085Y747681D02*
Y100181D01*
X1500085D01*
Y500181D01*
X1625085Y625181D01*
Y785181D01*
X1600085Y810180D01*
X1576062D01*
X1575000Y810392D01*
X1412500D01*
Y859628D01*
X1788137D01*
X1900085Y747681D01*
D02*
G37*
G36*
X1150000Y2540000D02*
X160000D01*
X100000Y2600000D01*
Y3000000D01*
X1150000D01*
Y2540000D01*
D02*
G37*
G36*
X1310000Y2460000D02*
Y2400000D01*
X1230000Y2320000D01*
X1070000D01*
Y2480000D01*
X1090000Y2500000D01*
X1270000D01*
X1310000Y2460000D01*
D02*
G37*
G36*
X1015000Y2165000D02*
X980000Y2130000D01*
X650000D01*
Y2462500D01*
X677500Y2490000D01*
X1015000D01*
Y2165000D01*
D02*
G37*
G36*
X2887500Y810392D02*
X2725000D01*
X2723030Y810000D01*
X2705000D01*
Y810000D01*
X2700000D01*
X2675000Y785000D01*
Y625000D01*
X2800000Y500000D01*
Y100000D01*
X2400000D01*
Y747500D01*
X2511912Y859412D01*
X2599999D01*
X2600000Y859412D01*
X2602956Y860000D01*
X2887500D01*
Y810392D01*
D02*
G37*
G36*
X3075000Y612892D02*
X2982108Y520000D01*
X2980000D01*
Y517892D01*
X2962500Y500392D01*
X2837500D01*
X2820000Y517892D01*
Y520000D01*
X2817892D01*
X2725000Y612892D01*
Y790000D01*
X3075000D01*
Y612892D01*
D02*
G37*
G36*
X3400000Y747500D02*
Y100000D01*
X3000000D01*
Y500000D01*
X3125000Y625000D01*
Y785000D01*
X3100000Y810000D01*
X3095000D01*
Y810000D01*
X3076970D01*
X3075000Y810392D01*
X2912500D01*
Y859628D01*
X3287872D01*
X3400000Y747500D01*
D02*
G37*
G36*
X4575000Y612892D02*
X4482108Y520000D01*
X4480000D01*
Y517892D01*
X4462500Y500392D01*
X4337500D01*
X4320000Y517892D01*
Y520000D01*
X4317892D01*
X4225000Y612892D01*
Y790000D01*
X4575000D01*
Y612892D01*
D02*
G37*
G36*
X4387500Y810392D02*
X4225000D01*
X4223030Y810000D01*
X4205000D01*
Y810000D01*
X4200000D01*
X4175000Y785000D01*
Y625000D01*
X4300000Y500000D01*
Y100000D01*
X3900000D01*
Y747500D01*
X4012500Y860000D01*
X4387500D01*
Y810392D01*
D02*
G37*
G36*
X4900395Y747186D02*
Y99686D01*
X4500395D01*
Y499686D01*
X4625395Y624686D01*
Y784686D01*
X4600395Y809685D01*
X4595000D01*
Y810000D01*
X4576970D01*
X4575000Y810392D01*
X4412500D01*
Y859628D01*
X4787952D01*
X4900395Y747186D01*
D02*
G37*
D10*
X4754000Y2900000D02*
D03*
X4627000D02*
D03*
X4500000D02*
D03*
X4373000D02*
D03*
X4246000D02*
D03*
X4119000D02*
D03*
X3992000D02*
D03*
X3865000D02*
D03*
Y2355610D02*
D03*
X3992000D02*
D03*
X4119000D02*
D03*
X4246000D02*
D03*
X4373000D02*
D03*
X4500000D02*
D03*
X4627000D02*
D03*
X4754000D02*
D03*
X2994500Y2352805D02*
D03*
X2867500D02*
D03*
X2740500D02*
D03*
X2613500D02*
D03*
X2486500D02*
D03*
X2359500D02*
D03*
X2232500D02*
D03*
X2105500D02*
D03*
Y2897195D02*
D03*
X2232500D02*
D03*
X2359500D02*
D03*
X2486500D02*
D03*
X2613500D02*
D03*
X2740500D02*
D03*
X2867500D02*
D03*
X2994500D02*
D03*
D11*
X1165000Y2170000D02*
D03*
Y1980000D02*
D03*
X925000D02*
D03*
Y2075000D02*
D03*
Y2170000D02*
D03*
D12*
X910000Y2770000D02*
D03*
D13*
X300000Y2800000D02*
D03*
D14*
X2300000Y3745000D02*
D03*
Y3895000D02*
D03*
X2500000Y3745000D02*
D03*
Y3895000D02*
D03*
X3640000Y1075000D02*
D03*
Y1225000D02*
D03*
X2170000Y1065000D02*
D03*
Y1215000D02*
D03*
X680000Y1090000D02*
D03*
Y1240000D02*
D03*
X1510000Y2310000D02*
D03*
Y2460000D02*
D03*
X1760000Y2310000D02*
D03*
Y2460000D02*
D03*
D15*
X2300000Y3555000D02*
D03*
Y3425000D02*
D03*
X2500000Y3555000D02*
D03*
Y3425000D02*
D03*
X3640000Y1505000D02*
D03*
Y1375000D02*
D03*
X2170000Y1495000D02*
D03*
Y1365000D02*
D03*
X680000Y1525000D02*
D03*
Y1395000D02*
D03*
X4100000Y1540000D02*
D03*
Y1410000D02*
D03*
X4300000Y1540000D02*
D03*
Y1410000D02*
D03*
X4500000Y1540000D02*
D03*
Y1410000D02*
D03*
X4700000Y1540000D02*
D03*
Y1410000D02*
D03*
X1100000Y1540000D02*
D03*
Y1410000D02*
D03*
X1300000Y1540000D02*
D03*
Y1410000D02*
D03*
X1500000Y1540000D02*
D03*
Y1410000D02*
D03*
X1700000Y1540000D02*
D03*
Y1410000D02*
D03*
X2600000Y1540000D02*
D03*
Y1410000D02*
D03*
X2800000Y1540000D02*
D03*
Y1410000D02*
D03*
X3000000Y1540000D02*
D03*
Y1410000D02*
D03*
X3200000Y1540000D02*
D03*
Y1410000D02*
D03*
X1510000Y2800000D02*
D03*
Y2670000D02*
D03*
X1760000Y2800000D02*
D03*
Y2670000D02*
D03*
X4850000Y3610000D02*
D03*
Y3740000D02*
D03*
D16*
X3640000Y1667500D02*
D03*
Y1812500D02*
D03*
X2170000Y1657500D02*
D03*
Y1802500D02*
D03*
X1325000Y2002500D02*
D03*
Y2147500D02*
D03*
X700000Y2027500D02*
D03*
Y2172500D02*
D03*
X2720000Y4497500D02*
D03*
Y4642500D02*
D03*
X2090000Y4497500D02*
D03*
Y4642500D02*
D03*
D17*
X672500Y1700000D02*
D03*
X527500D02*
D03*
X2022500Y3310000D02*
D03*
X1877500D02*
D03*
X2852500Y2175000D02*
D03*
X2997500D02*
D03*
X4617500Y2160000D02*
D03*
X4762500D02*
D03*
X2852500Y3075000D02*
D03*
X2997500D02*
D03*
X4617500Y3090000D02*
D03*
X4762500D02*
D03*
D18*
X4065000Y1000000D02*
D03*
X3935000D02*
D03*
X1005000D02*
D03*
X875000D02*
D03*
X2505000D02*
D03*
X2375000D02*
D03*
D19*
X719500Y2399000D02*
D03*
X846500D02*
D03*
X973500D02*
D03*
X1100500D02*
D03*
D20*
X4260000Y1062500D02*
D03*
Y1012500D02*
D03*
Y962500D02*
D03*
X4540000D02*
D03*
Y1012500D02*
D03*
Y1062500D02*
D03*
X2760000D02*
D03*
Y1012500D02*
D03*
Y962500D02*
D03*
X3040000D02*
D03*
Y1012500D02*
D03*
Y1062500D02*
D03*
X1260000D02*
D03*
Y1012500D02*
D03*
Y962500D02*
D03*
X1540000D02*
D03*
Y1012500D02*
D03*
Y1062500D02*
D03*
D21*
X4400000Y905000D02*
D03*
X2900000D02*
D03*
X1400000D02*
D03*
D22*
X4308750Y835000D02*
D03*
X4491250D02*
D03*
X2808750D02*
D03*
X2991250D02*
D03*
X1308750D02*
D03*
X1491250D02*
D03*
D23*
X4400000Y720000D02*
D03*
X2900000D02*
D03*
X1400000D02*
D03*
D24*
X4475000Y1115000D02*
D03*
X4425000D02*
D03*
X4375000D02*
D03*
X4325000D02*
D03*
X2975000D02*
D03*
X2925000D02*
D03*
X2875000D02*
D03*
X2825000D02*
D03*
X1475000D02*
D03*
X1425000D02*
D03*
X1375000D02*
D03*
X1325000D02*
D03*
D25*
X1100000Y300000D02*
D03*
X1700000D02*
D03*
X2600000D02*
D03*
X3200000D02*
D03*
X4700000D02*
D03*
X4100000D02*
D03*
X300000Y2200000D02*
D03*
D26*
X2305500Y4665000D02*
D03*
Y4570000D02*
D03*
Y4475000D02*
D03*
X2534500D02*
D03*
Y4665000D02*
D03*
D27*
X3778734Y4751265D02*
D03*
X3881265Y4648735D02*
D03*
X3418735Y3451265D02*
D03*
X3521265Y3348735D02*
D03*
D28*
X3511265Y4821265D02*
D03*
X3408734Y4718735D02*
D03*
X3718734Y3348735D02*
D03*
X3821265Y3451265D02*
D03*
D29*
X4475000Y3750000D02*
D03*
X4625000D02*
D03*
D30*
X1581400Y3317000D02*
D03*
X1175000D02*
D03*
X1581400Y3444000D02*
D03*
X1175000D02*
D03*
X1581400Y3571000D02*
D03*
X1175000D02*
D03*
X1581400Y3698000D02*
D03*
X1175000D02*
D03*
X1581400Y3825000D02*
D03*
X1175000D02*
D03*
D31*
X1400000Y4180000D02*
D03*
Y4275000D02*
D03*
Y4370000D02*
D03*
X1660000Y4180000D02*
D03*
Y4370000D02*
D03*
D32*
X3724196Y3579824D02*
D03*
X3780764Y3636393D02*
D03*
X3837333Y3692962D02*
D03*
X3893901Y3749530D02*
D03*
X3950470Y3806099D02*
D03*
X4007038Y3862667D02*
D03*
X4063607Y3919235D02*
D03*
X4120175Y3975804D02*
D03*
X3515804Y4580175D02*
D03*
X3459236Y4523607D02*
D03*
X3402667Y4467038D02*
D03*
X3346098Y4410470D02*
D03*
X3289530Y4353901D02*
D03*
X3232962Y4297333D02*
D03*
X3176393Y4240764D02*
D03*
X3119824Y4184196D02*
D03*
D33*
X4120175D02*
D03*
X4063607Y4240764D02*
D03*
X4007038Y4297333D02*
D03*
X3950470Y4353901D02*
D03*
X3893901Y4410470D02*
D03*
X3837333Y4467038D02*
D03*
X3780764Y4523607D02*
D03*
X3724196Y4580175D02*
D03*
X3119824Y3975804D02*
D03*
X3176393Y3919236D02*
D03*
X3232962Y3862667D02*
D03*
X3289530Y3806099D02*
D03*
X3346098Y3749530D02*
D03*
X3402667Y3692962D02*
D03*
X3459235Y3636393D02*
D03*
X3515804Y3579824D02*
D03*
D34*
X1380000Y4850000D02*
D03*
X1620000D02*
D03*
D35*
X1180000Y4605000D02*
D03*
X1820000D02*
D03*
D36*
X1370000Y4582500D02*
D03*
X1435000D02*
D03*
X1500000D02*
D03*
X1565000D02*
D03*
X1630000D02*
D03*
D37*
X1320000Y4570000D02*
X1362700D01*
Y4575200D02*
X1370000Y4582500D01*
X1362700Y4570000D02*
Y4575200D01*
X1602500Y1062500D02*
X1814800Y1274800D01*
Y1824800D02*
X2160000Y2170000D01*
X1814800Y1274800D02*
Y1824800D01*
X4612500Y1062500D02*
X4794800Y1244800D01*
Y1615200D01*
X4373000Y2037000D02*
X4794800Y1615200D01*
X3724196Y4580175D02*
X3754534Y4610514D01*
X3738275Y4644224D02*
X3754534Y4627966D01*
Y4610514D02*
Y4627966D01*
X3738275Y4644224D02*
Y4684639D01*
X3778734Y4725098D01*
Y4751265D01*
X3724196Y4577185D02*
Y4580175D01*
X1318204Y4292300D02*
X1382700D01*
X1400000Y4275000D01*
X1305304Y4305200D02*
X1318204Y4292300D01*
X1300000Y4305200D02*
X1305304D01*
X2300000Y3895000D02*
X2395000Y3990000D01*
X2400000D01*
X3263750Y4586250D02*
X3283456D01*
X3260000Y4590000D02*
X3263750Y4586250D01*
X3283456D02*
X3402667Y4467038D01*
X2630000Y3750000D02*
X2770000Y3890000D01*
X2930000D01*
X3980000Y3693295D02*
X4000468Y3713763D01*
Y3738649D01*
X3950470Y3788647D02*
X4000468Y3738649D01*
X3980000Y3320000D02*
Y3693295D01*
X3950470Y3788647D02*
Y3806099D01*
X4070000Y3250000D02*
Y3782254D01*
X4007038Y3845216D02*
X4070000Y3782254D01*
X3784800Y3124800D02*
X3980000Y3320000D01*
X3345200Y3124800D02*
X3784800D01*
X3854784Y4467038D02*
X3907746Y4520000D01*
X3837333Y4467038D02*
X3854784D01*
X3907746Y4520000D02*
X3970000D01*
X3580000Y4760000D02*
X3580000D01*
X3511265Y4821265D02*
X3518734D01*
X3580000Y4760000D01*
X3650000Y4500000D02*
Y4502990D01*
X3724196Y4577185D01*
X1341500Y3318500D02*
X1370000Y3290000D01*
X1176500Y3318500D02*
X1341500D01*
X1175000Y3317000D02*
X1176500Y3318500D01*
X2410000Y3430000D02*
X2495000D01*
X2500000Y3425000D01*
X2220000Y3430000D02*
X2295000D01*
X2300000Y3425000D01*
X2430000Y4150000D02*
X3017699D01*
X2247700Y3967700D02*
X2430000Y4150000D01*
X3017699D02*
X3077134Y4209435D01*
X3094585D02*
X3119824Y4184196D01*
X3077134Y4209435D02*
X3094585D01*
X2851508Y4351889D02*
X3065268D01*
X3176393Y4240764D01*
X2370000Y4260000D02*
X2759619D01*
X2851508Y4351889D01*
X2500000Y3895000D02*
X2595000D01*
X2690000Y3990000D01*
X1935000Y3825000D02*
X2370000Y4260000D01*
X2230000Y2170000D02*
X2345570Y2285570D01*
X2160000Y2170000D02*
X2230000D01*
X2345570Y2338875D02*
X2359500Y2352805D01*
X2345570Y2285570D02*
Y2338875D01*
X1691935Y1012500D02*
X1939043Y1259607D01*
Y1839043D01*
X1540000Y1062500D02*
X1602500D01*
X2740500Y2049500D02*
X2800000Y1990000D01*
X3040000D02*
X3380000Y1650000D01*
X2800000Y1990000D02*
X3040000D01*
X2740500Y2049500D02*
Y2352805D01*
X2760000Y1900000D02*
X3005795D01*
X2613500Y2046500D02*
Y2352805D01*
Y2046500D02*
X2760000Y1900000D01*
X3005795D02*
X3300000Y1605795D01*
X3380000Y1160000D02*
Y1650000D01*
X3040000Y1062500D02*
X3132500D01*
X3300000Y1230000D02*
Y1605795D01*
X3132500Y1062500D02*
X3300000Y1230000D01*
X4915400Y1205400D02*
Y1654600D01*
X4500000Y2070000D02*
Y2355610D01*
Y2070000D02*
X4915400Y1654600D01*
X4540000Y1062500D02*
X4612500D01*
X3230000Y3240000D02*
X3345200Y3124800D01*
X2865000Y3240000D02*
X3230000D01*
X2740500Y3115500D02*
X2865000Y3240000D01*
X3825505Y3005505D02*
X4070000Y3250000D01*
X4119000Y2900000D02*
Y3255218D01*
X4171000Y3307218D01*
X3824825Y3005505D02*
X3825505D01*
X3816718Y2997398D02*
X3824825Y3005505D01*
X3127156Y2997398D02*
X3816718D01*
X3112277Y2869292D02*
Y2982519D01*
X3127156Y2997398D01*
X1581400Y3825000D02*
X1935000D01*
X2246455Y3967700D02*
X2247700D01*
X1581400Y3698000D02*
X1978000D01*
X2227300Y3947300D01*
Y3948545D02*
X2246455Y3967700D01*
X2227300Y3947300D02*
Y3948545D01*
X2720000Y4497500D02*
X2722500Y4500000D01*
X2810000D01*
X1176000Y3699000D02*
X1349000D01*
X1350000Y3700000D01*
X1175000Y3698000D02*
X1176000Y3699000D01*
X1175000Y3571000D02*
X1175500Y3570500D01*
X1349500D01*
X1350000Y3570000D01*
X2032500Y3300000D02*
X2100000D01*
X2022500Y3310000D02*
X2032500Y3300000D01*
X3515804Y3579824D02*
X3520176D01*
X3550000Y3550000D01*
X3701266Y3348735D02*
X3718734D01*
X3650000Y3400000D02*
X3650000D01*
X3701266Y3348735D01*
X2171498Y2071498D02*
X2281498D01*
X2473394Y2263394D02*
Y2337473D01*
X2281498Y2071498D02*
X2473394Y2263394D01*
Y2337473D02*
X2486500Y2350579D01*
X1325000Y1900000D02*
Y2002500D01*
X1320000D02*
X1325000D01*
X3232500Y1012500D02*
X3380000Y1160000D01*
X4722500Y1012500D02*
X4915400Y1205400D01*
X1939043Y1839043D02*
X2171498Y2071498D01*
X1540000Y1012500D02*
X1691935D01*
X3040000D02*
X3232500D01*
X2580200Y2694800D02*
X2937785D01*
X2486500Y2788500D02*
X2580200Y2694800D01*
X2937785D02*
X3112277Y2869292D01*
X2105500Y2794500D02*
Y2897195D01*
Y2794500D02*
X2150000Y2750000D01*
X3850000Y4200000D02*
X3909705D01*
X4007038Y4297333D01*
X3400000Y3890000D02*
X3745200Y4235200D01*
X3814800D01*
X3850000Y4200000D01*
X3347814Y3749530D02*
X3778284Y4180000D01*
X3780000D01*
X3346098Y3749530D02*
X3347814D01*
X3278407Y4021250D02*
X3296250D01*
X3176393Y3919236D02*
X3278407Y4021250D01*
X3296250D02*
X3300000Y4025000D01*
X2995400Y3420400D02*
X3200000Y3625000D01*
X2881195Y3420400D02*
X2995400D01*
X2815595Y3354800D02*
X2881195Y3420400D01*
X2770930Y3354800D02*
X2815595D01*
X2359500Y2943370D02*
X2770930Y3354800D01*
X2359500Y2897195D02*
Y2943370D01*
X3073824Y3590392D02*
X3289530Y3806099D01*
X2940392Y3590392D02*
X3073824D01*
X2760000Y3410000D02*
X2940392Y3590392D01*
X3175000Y3375000D02*
X3300000Y3500000D01*
X2900000Y3375000D02*
X3175000D01*
X2613500Y3088500D02*
X2900000Y3375000D01*
X2613500Y2897195D02*
Y3088500D01*
X2486500Y2788500D02*
Y2897195D01*
X4007038Y3845216D02*
Y3862667D01*
X4210000Y3220000D02*
X4246000Y3184000D01*
Y2900000D02*
Y3184000D01*
X4227219Y3307218D02*
X4270000Y3350000D01*
X4171000Y3307218D02*
X4227219D01*
X3736721Y3697888D02*
Y3750000D01*
Y3697888D02*
X3780764Y3653845D01*
X3736721Y3750000D02*
X3784140Y3797419D01*
X3793677Y3871250D02*
X3844644Y3820284D01*
X3784140Y3797419D02*
X3789444D01*
X3844644Y3816240D02*
X3893901Y3766982D01*
X3789633Y3871250D02*
X3793677D01*
X3844644Y3816240D02*
Y3820284D01*
X3783414Y3983414D02*
X3805349D01*
X3550000Y3750000D02*
X3783414Y3983414D01*
X4062700Y4240764D02*
X4063607D01*
X3805349Y3983414D02*
X4062700Y4240764D01*
X2740500Y2897195D02*
Y3115500D01*
X3300000Y3500000D02*
Y3500000D01*
X4370000Y3243032D02*
X4373000Y3240032D01*
Y2900000D02*
Y3240032D01*
X3402667Y3692962D02*
X3402814D01*
X3809853Y4100000D02*
X3810000D01*
X3402814Y3692962D02*
X3809853Y4100000D01*
X2630000Y3280000D02*
Y3750000D01*
X2574800Y3224800D02*
X2630000Y3280000D01*
X3819881Y4467038D02*
X3837333D01*
X4373000Y2037000D02*
Y2355610D01*
X4182500Y1100000D02*
X4219800Y1062700D01*
X3665000Y1100000D02*
X4182500D01*
X4219800Y1062700D02*
X4259800D01*
X4077500Y1012500D02*
X4260000D01*
X4065000Y1000000D02*
X4077500Y1012500D01*
X4259800Y1062700D02*
X4260000Y1062500D01*
X3910000Y975000D02*
X3935000Y1000000D01*
X3820000Y975000D02*
X3910000D01*
X2505000Y1000000D02*
X2580000D01*
X2592500Y1012500D02*
X2760000D01*
X2580000Y1000000D02*
X2592500Y1012500D01*
X3865000Y2765000D02*
Y2900000D01*
Y2765000D02*
X3910000Y2720000D01*
X2180600Y4497500D02*
X2236800Y4553700D01*
X2289200D02*
X2305500Y4570000D01*
X2090000Y4497500D02*
X2180600D01*
X2236800Y4553700D02*
X2289200D01*
X2667700Y1092300D02*
X2697500Y1062500D01*
X2760000D01*
X4119500Y2170500D02*
Y2355110D01*
X4119000Y2355610D02*
X4119500Y2355110D01*
Y2170500D02*
X4120000Y2170000D01*
X3893901Y3749530D02*
Y3766982D01*
X1957700Y3224800D02*
X2574800D01*
X1877500Y3305000D02*
X1957700Y3224800D01*
X1877500Y3305000D02*
Y3310000D01*
X3113750Y3733750D02*
Y3743456D01*
X3232962Y3862667D01*
X3110000Y3730000D02*
X3113750Y3733750D01*
X3780764Y3636393D02*
Y3653845D01*
X4475000Y3750000D02*
Y3835000D01*
X4240000Y4070000D02*
X4475000Y3835000D01*
X3253750Y4686250D02*
X3296593D01*
X3459236Y4523607D01*
X3250000Y4690000D02*
X3253750Y4686250D01*
X4625000Y3750000D02*
X4840000D01*
X4850000Y3740000D01*
X4270000Y3800000D02*
Y3825979D01*
X4120175Y3975804D02*
X4270000Y3825979D01*
X3958598Y4353901D02*
X4064696Y4460000D01*
X3950470Y4353901D02*
X3958598D01*
X4064696Y4460000D02*
X4070000D01*
X4063607Y3919235D02*
X4500000Y3482842D01*
Y2900000D02*
Y3482842D01*
X2300000Y3555000D02*
Y3745000D01*
X2500000Y3555000D02*
Y3745000D01*
X3511265Y4821265D02*
Y4821265D01*
X3510450Y3574471D02*
X3515804Y3579824D01*
X3418735Y3482755D02*
X3510450Y3574471D01*
X3418735Y3451265D02*
Y3482755D01*
X3510450Y3557019D02*
Y3574471D01*
X1581400Y3317000D02*
X1870500D01*
X1877500Y3310000D01*
X4540000Y1012500D02*
X4722500D01*
X680000Y1240000D02*
Y1395000D01*
X2170000Y1215000D02*
Y1365000D01*
X4475000Y1192501D02*
X4692500Y1410000D01*
X4700000D01*
X4475000Y1115000D02*
Y1192501D01*
X4500000Y1294900D02*
Y1410000D01*
X4425000Y1219900D02*
X4500000Y1294900D01*
X4425000Y1115000D02*
Y1219900D01*
X4375000Y1115000D02*
Y1219900D01*
X4300000Y1294900D02*
Y1410000D01*
Y1294900D02*
X4375000Y1219900D01*
X4107500Y1410000D02*
X4325000Y1192500D01*
X4100000Y1410000D02*
X4107500D01*
X4325000Y1115000D02*
Y1192500D01*
X3192500Y1410000D02*
X3200000D01*
X2975000Y1192501D02*
X3192500Y1410000D01*
X2975000Y1115000D02*
Y1192501D01*
X2925000Y1219900D02*
X3000000Y1294900D01*
X2925000Y1115000D02*
Y1219900D01*
X3000000Y1294900D02*
Y1410000D01*
X2800000Y1295000D02*
Y1410000D01*
Y1295000D02*
X2875000Y1220000D01*
Y1115000D02*
Y1220000D01*
X2607500Y1410000D02*
X2825000Y1192500D01*
Y1115000D02*
Y1192500D01*
X2600000Y1410000D02*
X2607500D01*
X1475000Y1192500D02*
X1692500Y1410000D01*
X1475000Y1115000D02*
Y1192500D01*
X1692500Y1410000D02*
X1700000D01*
X1500000Y1294900D02*
Y1410000D01*
X1425000Y1115000D02*
Y1219900D01*
X1500000Y1294900D01*
X1100000Y1410000D02*
X1107500D01*
X1325000Y1192500D01*
Y1115000D02*
Y1192500D01*
X1375000Y1115000D02*
Y1219900D01*
X1300000Y1294900D02*
Y1410000D01*
Y1294900D02*
X1375000Y1219900D01*
X690000Y1100000D02*
X1150000D01*
X680000Y1090000D02*
X690000Y1100000D01*
X1187500Y1062500D02*
X1260000D01*
X1150000Y1100000D02*
X1187500Y1062500D01*
X2197300Y1092300D02*
X2667700D01*
X2170000Y1065000D02*
X2197300Y1092300D01*
X3640000Y1225000D02*
Y1375000D01*
Y1075000D02*
X3665000Y1100000D01*
D38*
X430000Y1730000D02*
X497500D01*
X527500Y1700000D01*
X3676000Y1886000D02*
X3690000Y1900000D01*
X3640000Y1812500D02*
X3645000D01*
X3676000Y1843500D01*
Y1886000D01*
X3862296Y2192296D02*
Y2352906D01*
X3865000Y2355610D01*
X3860000Y2190000D02*
X3862296Y2192296D01*
X1100000Y1540000D02*
X1300000D01*
X1500000D02*
X1700000D01*
X2600000Y1540000D02*
X2800000D01*
X2592500Y1540000D02*
X2600000D01*
X3000000Y1540000D02*
X3200000D01*
X1605000Y1920000D02*
X1672224D01*
X1575000Y1950000D02*
X1605000Y1920000D01*
X1672224D02*
X1702204Y1890021D01*
X1745388D01*
X1747684Y1892317D01*
X1575000Y1950000D02*
X1575000D01*
X2200204Y1772296D02*
X2287704D01*
X2170000Y1802500D02*
X2200204Y1772296D01*
X2287704D02*
X2290000Y1770000D01*
X4500000Y1540000D02*
X4700000D01*
X4300000D02*
X4500000D01*
X4200000D02*
X4300000D01*
X4100000D02*
X4200000D01*
X4100000Y1540000D02*
X4100000Y1540000D01*
X2997500Y2175000D02*
X3202500D01*
X3500000Y1800000D02*
Y1877500D01*
X3202500Y2175000D02*
X3500000Y1877500D01*
X2325000Y942500D02*
X2375000Y992500D01*
X2034243Y1730996D02*
Y1734243D01*
Y1730996D02*
X2074747Y1690491D01*
Y1688500D02*
Y1690491D01*
X2165000Y1657500D02*
X2170000D01*
X2134000Y1688500D02*
X2165000Y1657500D01*
X2074747Y1688500D02*
X2134000D01*
X2996000Y2176500D02*
Y2351305D01*
Y2176500D02*
X2997500Y2175000D01*
X2994500Y2352805D02*
X2996000Y2351305D01*
X2800000Y1540000D02*
X3000000D01*
X2600000Y1540000D02*
X2600000Y1540000D01*
X3647669Y1675169D02*
X3722669D01*
X3734119Y1685000D02*
X3959119Y1910000D01*
X4370000D01*
X3732500Y1685000D02*
X3734119D01*
X3722669Y1675169D02*
X3732500Y1685000D01*
X3640000Y1667500D02*
X3647669Y1675169D01*
X3640000Y1505000D02*
Y1667500D01*
X2170000Y1495000D02*
Y1657500D01*
X802500Y920000D02*
X875000Y992500D01*
X770000Y920000D02*
X802500D01*
X875000Y992500D02*
Y1000000D01*
X2375000Y992500D02*
Y1000000D01*
X1300000Y1540000D02*
X1500000D01*
X4761250Y2021250D02*
Y2158750D01*
X4760000Y2020000D02*
X4761250Y2021250D01*
Y2158750D02*
X4762500Y2160000D01*
X3634831Y1672669D02*
X3640000Y1667500D01*
X3500000Y1730000D02*
X3557331Y1672669D01*
X3634831D01*
X3500000Y1730000D02*
Y1800000D01*
X4754000Y2355610D02*
X4758250Y2351360D01*
Y2164250D02*
Y2351360D01*
Y2164250D02*
X4762500Y2160000D01*
D39*
X1363647Y3825000D02*
X1368647Y3830000D01*
X1370000D01*
X885742Y3825000D02*
X1363647D01*
X3780764Y4520764D02*
Y4523607D01*
X3680000Y4420000D02*
X3780764Y4520764D01*
X3670000Y4898000D02*
X3910000D01*
X4000000Y4767470D02*
Y4808000D01*
X3910000Y4898000D02*
X4000000Y4808000D01*
X3881265Y4648735D02*
X4000000Y4767470D01*
X3910000Y4898000D02*
X4048000D01*
X3881265Y4624108D02*
Y4648735D01*
X3628000Y4940000D02*
X3670000Y4898000D01*
X4048000D02*
X4525000Y4421000D01*
X3110000Y4780000D02*
X3270000Y4940000D01*
X3628000D01*
X2720000Y4642500D02*
Y4770000D01*
X2820000Y4870000D01*
X2720000Y4642500D02*
X2972500D01*
X3408734Y4718735D02*
X3408734D01*
X3347469Y4780000D02*
X3408734Y4718735D01*
X3110000Y4780000D02*
X3347469D01*
X2972500Y4642500D02*
X3110000Y4780000D01*
X2534500Y4665000D02*
X2697500D01*
X2720000Y4642500D01*
X3509825Y4580175D02*
X3515804D01*
X3408734Y4681266D02*
X3509825Y4580175D01*
X3408734Y4681266D02*
Y4718735D01*
X3780764Y4523607D02*
X3881265Y4624108D01*
X640000Y3920000D02*
Y4339000D01*
X475000Y3625000D02*
Y3755000D01*
X640000Y3920000D01*
X475000Y3625000D02*
X685742D01*
X885742Y3825000D01*
X475000Y4504000D02*
X640000Y4339000D01*
D40*
X2126500Y4674000D02*
Y4722982D01*
X2092500Y4645000D02*
X2097500D01*
X2126500Y4722982D02*
X2160000Y4756482D01*
X2097500Y4645000D02*
X2126500Y4674000D01*
X2160000Y4756482D02*
Y4760000D01*
X2107750Y2355055D02*
Y2457750D01*
X2110000Y2460000D01*
X2105500Y2352805D02*
X2107750Y2355055D01*
X2868750Y2359815D02*
X2871630Y2356935D01*
X2868750Y2359815D02*
Y2448750D01*
X2870000Y2450000D01*
X4622487Y2406297D02*
X4627000Y2401785D01*
X4622487Y2406297D02*
Y2457512D01*
X4620000Y2460000D02*
X4622487Y2457512D01*
X4627000Y2169500D02*
Y2401785D01*
X1817250Y4370000D02*
X1970000Y4522750D01*
Y4590000D01*
X1644000Y4370000D02*
X1817250D01*
X2092500Y4645000D02*
X2105737D01*
X2058500Y4611000D02*
X2092500Y4645000D01*
X2105737D02*
X2181505D01*
X1970000Y4590000D02*
X1991000Y4611000D01*
X2058500D01*
X2825000Y2750000D02*
X2863370Y2788370D01*
Y2893065D02*
X2867500Y2897195D01*
X2863370Y2788370D02*
Y2893065D01*
X2852500Y3075000D02*
X2867500Y3060000D01*
Y2897195D02*
Y3060000D01*
X2205505Y4669000D02*
X2230000D01*
X2181505Y4645000D02*
X2205505Y4669000D01*
X1630000Y4384000D02*
X1644000Y4370000D01*
X1630000Y4384000D02*
Y4582500D01*
X2427500Y4493745D02*
Y4622500D01*
X2398000Y4652000D02*
X2427500Y4622500D01*
X2318500Y4652000D02*
X2398000D01*
X2305500Y4665000D02*
X2318500Y4652000D01*
X2305500Y4475000D02*
X2408755D01*
X2427500Y4493745D01*
X4617500Y2160000D02*
X4627000Y2169500D01*
D41*
X3604896Y3240000D02*
X3790000D01*
X3870000Y3320000D01*
X3821265Y3408839D02*
Y3457651D01*
X3868087Y3321913D02*
X3870000Y3320000D01*
X3868087Y3321913D02*
Y3362017D01*
X3821265Y3408839D02*
X3868087Y3362017D01*
X3521265Y3323631D02*
X3604896Y3240000D01*
X3523087Y4123087D02*
Y4173087D01*
X3350000Y3950000D02*
X3523087Y4123087D01*
X2994500Y2897195D02*
X2996000Y2898695D01*
Y3073500D02*
X2997500Y3075000D01*
X3754534Y3524382D02*
X3821265Y3457651D01*
X3754534Y3524382D02*
Y3549486D01*
X3724196Y3579824D02*
X3754534Y3549486D01*
X3521265Y3323631D02*
Y3348735D01*
X4760000Y3092500D02*
X4762500Y3090000D01*
X4760000Y3092500D02*
Y3190000D01*
X4754000Y2900000D02*
Y3081500D01*
X4762500Y3090000D01*
D42*
X2813323Y4444076D02*
X3175619D01*
X3228033Y4391662D01*
X2832555Y4397644D02*
X3156387D01*
X2744080Y4374833D02*
X2813323Y4444076D01*
X3156387Y4397644D02*
X3195201Y4358830D01*
X2763313Y4328402D02*
X2832555Y4397644D01*
X2324065Y4328402D02*
X2763313D01*
X2304833Y4374833D02*
X2744080D01*
X2040833Y4110833D02*
X2304833Y4374833D01*
X2060066Y4064402D02*
X2324065Y4328402D01*
X1603823Y4064402D02*
X2060066D01*
X1729167Y4110833D02*
X2040833D01*
X1660000Y4180000D02*
X1680000D01*
X1696945Y4143055D02*
Y4163056D01*
X1517712Y4150513D02*
X1603823Y4064402D01*
X1696945Y4143055D02*
X1729167Y4110833D01*
X1449487Y4150513D02*
X1517712D01*
X1680000Y4180000D02*
X1696945Y4163056D01*
X1420000Y4180000D02*
X1449487Y4150513D01*
X1506624Y4240296D02*
Y4575876D01*
X1416944Y4196944D02*
X1463273D01*
X1506624Y4240296D01*
X1400000Y4180000D02*
X1420000D01*
X1500000Y4582500D02*
X1506624Y4575876D01*
X1400000Y4180000D02*
X1416944Y4196944D01*
X1596567D02*
X1643056D01*
X1660000Y4180000D01*
X1558056Y4575555D02*
X1565000Y4582500D01*
X1558056Y4515100D02*
Y4575555D01*
X1553056Y4510100D02*
X1558056Y4515100D01*
X1553056Y4240456D02*
X1596567Y4196944D01*
X1553056Y4240456D02*
Y4510100D01*
X3195201Y4352042D02*
X3232962Y4314281D01*
X3195201Y4352042D02*
Y4358830D01*
X3232962Y4297333D02*
Y4314281D01*
X3272581Y4353901D02*
X3289530D01*
X3234821Y4391662D02*
X3272581Y4353901D01*
X3228033Y4391662D02*
X3234821D01*
D43*
X1325000Y1700000D02*
X1575000Y1950000D01*
X1600000Y1975000D01*
X4850000Y3525000D02*
Y3610000D01*
X4617500Y3090000D02*
Y3217500D01*
X4650000Y3250000D01*
X4617500Y3090000D02*
X4622870Y3084630D01*
Y2904130D02*
X4627000Y2900000D01*
X4622870Y2904130D02*
Y3084630D01*
X702500Y2025000D02*
X802500D01*
X840000Y2062500D02*
X912500D01*
X802500Y2025000D02*
X840000Y2062500D01*
X676250Y1528750D02*
Y1696250D01*
Y1528750D02*
X680000Y1525000D01*
X672500Y1700000D02*
X676250Y1696250D01*
X1600000Y2147500D02*
X1697500D01*
X1325000D02*
X1600000D01*
Y1975000D02*
Y2147500D01*
X672500Y1700000D02*
X1325000D01*
X1697500Y2147500D02*
X1760000Y2210000D01*
Y2310000D01*
X1510000Y2800000D02*
Y2890000D01*
X1760000Y2800000D02*
Y2890000D01*
X700000Y2027500D02*
X702500Y2025000D01*
X912500Y2062500D02*
X925000Y2075000D01*
X450000Y2050000D02*
X472500Y2027500D01*
X1176250Y2158750D02*
X1313750D01*
X1325000Y2147500D01*
X1165000Y2170000D02*
X1176250Y2158750D01*
X2997500Y3080000D02*
X3022500Y3105000D01*
X3027500D01*
X3072500Y3150000D01*
X2997500Y3075000D02*
Y3080000D01*
X3072500Y3150000D02*
X3150000D01*
X2867500Y2352805D02*
X2871630Y2356935D01*
X2863370Y2185870D02*
Y2348675D01*
X2867500Y2352805D01*
X2852500Y2175000D02*
X2863370Y2185870D01*
X2996000Y2898695D02*
Y3073500D01*
X1760000Y2460000D02*
Y2670000D01*
X1510000Y2460000D02*
Y2670000D01*
D44*
X1820000Y1890387D02*
Y1970000D01*
X1015000Y1647500D02*
X1577113D01*
X1820000Y1890387D01*
X3448100Y1144474D02*
Y1642287D01*
Y1144474D02*
X3682574Y910000D01*
X3447500Y1642887D02*
X3448100Y1642287D01*
X3447500Y1642887D02*
Y1806746D01*
X865340Y1302914D02*
Y1497840D01*
X1015000Y1647500D01*
X3090000Y2020000D02*
X3094783Y2015217D01*
X3239030D01*
X3447500Y1806746D01*
X4202500Y962500D02*
X4260000D01*
X3682574Y910000D02*
X4150000D01*
X4202500Y962500D01*
X837500Y867500D02*
X860000Y890000D01*
X1070000D01*
X662500Y867500D02*
X837500D01*
X500000Y1030000D02*
X662500Y867500D01*
X500000Y1030000D02*
Y1100000D01*
X570000Y1170000D01*
X732426D01*
X865340Y1302914D01*
X2672500Y962500D02*
X2760000D01*
X2222573Y890000D02*
X2600000D01*
X2672500Y962500D01*
X1981743Y1130831D02*
X2222573Y890000D01*
X1981743Y1803678D02*
X2194363Y2016298D01*
X1981743Y1130831D02*
Y1803678D01*
X3040000Y962500D02*
X3290735D01*
X3318235Y990000D02*
X3325000D01*
X3290735Y962500D02*
X3318235Y990000D01*
X4540000Y962500D02*
X4752500D01*
X4810000Y1020000D01*
X1740735Y990000D02*
X1747500D01*
X1540000Y962500D02*
X1713235D01*
X1740735Y990000D01*
X4248000Y2152000D02*
Y2353610D01*
Y2152000D02*
X4250000Y2150000D01*
X4246000Y2355610D02*
X4248000Y2353610D01*
X1123432Y1000000D02*
X1135932Y1012500D01*
X1005000Y1000000D02*
X1123432D01*
X1135932Y1012500D02*
X1260000D01*
X1070000Y890000D02*
X1142500Y962500D01*
X1260000D01*
D45*
X990000Y2260000D02*
X1320000D01*
X1370000Y2310000D01*
X1510000D01*
X980000Y2250000D02*
X990000Y2260000D01*
X980000Y2230000D02*
X1030000Y2180000D01*
X980000Y2230000D02*
Y2250000D01*
X1030000Y2098609D02*
Y2180000D01*
Y2017218D02*
Y2098609D01*
X992782Y1980000D02*
X1030000Y2017218D01*
X925000Y1980000D02*
X992782D01*
X1180000Y4605000D02*
X1202500Y4582500D01*
X1170000Y4850000D02*
X1380000D01*
X1170000Y4615000D02*
X1180000Y4605000D01*
X1170000Y4615000D02*
Y4850000D01*
X1820000Y4605000D02*
X1830000Y4615000D01*
Y4850000D01*
X1620000D02*
X1830000D01*
D46*
X4745000Y905000D02*
X4842500D01*
X4621250D02*
X4745000D01*
X4400000D02*
X4621250D01*
X3227500D02*
X3342500D01*
X3121250D02*
X3227500D01*
X2900000D02*
X3121250D01*
X1760000D02*
X1850000D01*
X1645000D02*
X1760000D01*
X1400000D02*
X1645000D01*
X1850000D02*
X1926250Y828750D01*
X4842500Y905000D02*
X4937500Y810000D01*
X3342500Y905000D02*
X3427500Y820000D01*
D47*
X475000Y346000D02*
D03*
X221000Y473000D02*
D03*
X475000Y600000D02*
D03*
X221000Y727000D02*
D03*
X4525000Y4675000D02*
D03*
X4779000Y4548000D02*
D03*
X4525000Y4421000D02*
D03*
X4779000Y4294000D02*
D03*
X475000Y3371000D02*
D03*
X221000Y3498000D02*
D03*
X475000Y3625000D02*
D03*
X221000Y3752000D02*
D03*
X475000Y4250000D02*
D03*
X221000Y4377000D02*
D03*
X475000Y4504000D02*
D03*
X221000Y4631000D02*
D03*
D48*
X1170000Y4850000D02*
D03*
X1830000D02*
D03*
D49*
X1320000Y4570000D02*
D03*
X430000Y1730000D02*
D03*
X802500Y2025000D02*
D03*
X3690000Y1900000D02*
D03*
X972655Y1422655D02*
D03*
X1870000Y1330000D02*
D03*
X4850000Y1380000D02*
D03*
X3900000Y1430000D02*
D03*
X3510000Y1330000D02*
D03*
X2400000Y1490000D02*
D03*
X1300000Y4305200D02*
D03*
X2400000Y3990000D02*
D03*
X1370000Y3830000D02*
D03*
X2160000Y4760000D02*
D03*
X3260000Y4590000D02*
D03*
X2930000Y3890000D02*
D03*
X3870000Y3320000D02*
D03*
X3970000Y4520000D02*
D03*
X1370000Y3290000D02*
D03*
X2410000Y3430000D02*
D03*
X2220000D02*
D03*
X2690000Y3990000D02*
D03*
X1747684Y1892317D02*
D03*
X2810000Y4500000D02*
D03*
X1350000Y3700000D02*
D03*
Y3570000D02*
D03*
X3550000Y3550000D02*
D03*
X3650000Y3400000D02*
D03*
X4850000Y3525000D02*
D03*
X980000Y2250000D02*
D03*
X920000Y2290000D02*
D03*
X860000Y2250000D02*
D03*
X800000Y2290000D02*
D03*
X1160000Y2410000D02*
D03*
X1230000Y2390000D02*
D03*
X1220000Y2470000D02*
D03*
X2110000Y2460000D02*
D03*
X2870000Y2450000D02*
D03*
X4620000Y2460000D02*
D03*
X4120000Y2170000D02*
D03*
X450000Y2200000D02*
D03*
Y2350000D02*
D03*
X910000Y2440000D02*
D03*
X780000D02*
D03*
X910000Y2370000D02*
D03*
X780000Y2360000D02*
D03*
X680000Y2290000D02*
D03*
X740000Y2250000D02*
D03*
X3860000Y2190000D02*
D03*
X1030000Y2180000D02*
D03*
Y2098609D02*
D03*
Y2017218D02*
D03*
X1325000Y1900000D02*
D03*
X1510000Y2890000D02*
D03*
X1760000D02*
D03*
X2290000Y1770000D02*
D03*
X300000Y2050000D02*
D03*
Y2350000D02*
D03*
Y2200000D02*
D03*
X150000D02*
D03*
Y2050000D02*
D03*
X450000D02*
D03*
X150000Y2350000D02*
D03*
X4600000Y1540000D02*
D03*
X4200000Y1540000D02*
D03*
X2697500Y1542500D02*
D03*
X1600000Y1540000D02*
D03*
X1200000D02*
D03*
X3102500D02*
D03*
X1760000Y905000D02*
D03*
X1645000D02*
D03*
X3150000Y3150000D02*
D03*
X3090000Y2020000D02*
D03*
X2325000Y942500D02*
D03*
X2034243Y1734243D02*
D03*
X2194363Y2016298D02*
D03*
X1820000Y1970000D02*
D03*
X3325000Y990000D02*
D03*
X3227500Y905000D02*
D03*
X2825000Y2750000D02*
D03*
X2150000D02*
D03*
X3400000Y3890000D02*
D03*
X3200000Y3625000D02*
D03*
X3300000Y4025000D02*
D03*
X3350000Y3950000D02*
D03*
X4210000Y3220000D02*
D03*
X3789444Y3797419D02*
D03*
X3789633Y3871250D02*
D03*
X3550000Y3750000D02*
D03*
X3300000Y3500000D02*
D03*
X4370000Y3243032D02*
D03*
X3525000Y4175000D02*
D03*
X3650000Y4500000D02*
D03*
X3680000Y4420000D02*
D03*
X1926250Y828750D02*
D03*
X1850000Y905000D02*
D03*
X4621250D02*
D03*
X4745000D02*
D03*
X4937500Y810000D02*
D03*
X4842500Y905000D02*
D03*
X3427500Y820000D02*
D03*
X3342500Y905000D02*
D03*
X3121250D02*
D03*
X3820000Y975000D02*
D03*
X4810000Y1020000D02*
D03*
X1747500Y990000D02*
D03*
X1525000Y625000D02*
D03*
X1275000D02*
D03*
X1350000Y550000D02*
D03*
X1450000D02*
D03*
X2950000D02*
D03*
X2850000D02*
D03*
X2775000Y625000D02*
D03*
X3025000D02*
D03*
X4450000Y550000D02*
D03*
X4350000D02*
D03*
X4525000Y625000D02*
D03*
X4275000D02*
D03*
X2820000Y4870000D02*
D03*
X770000Y920000D02*
D03*
X4760000Y2020000D02*
D03*
X4370000Y1910000D02*
D03*
X3910000Y2720000D02*
D03*
X2180600Y4497500D02*
D03*
X3580000Y4760000D02*
D03*
X4650000Y3250000D02*
D03*
X2100000Y3300000D02*
D03*
X4760000Y3190000D02*
D03*
X3500000Y1800000D02*
D03*
X4250000Y2150000D02*
D03*
X2760000Y3410000D02*
D03*
X3110000Y3730000D02*
D03*
X4240000Y4070000D02*
D03*
X4270000Y3350000D02*
D03*
X3250000Y4690000D02*
D03*
X3810000Y4100000D02*
D03*
X3780000Y4180000D02*
D03*
X4270000Y3800000D02*
D03*
X4070000Y4460000D02*
D03*
%TF.MD5,a76b066c9e1d9ff419b2272c37b55331*%
M02*
