%TF.GenerationSoftware,Altium Limited,Altium Designer,22.11.1 (43)*%
G04 Layer_Color=65535*
%FSLAX45Y45*%
%MOMM*%
%TF.SameCoordinates,5EC9F59A-04D6-4A79-9134-D6B8A4EC69BD*%
%TF.FilePolarity,Positive*%
%TF.FileFunction,Legend,Top*%
%TF.Part,Single*%
G01*
G75*
%TA.AperFunction,NonConductor*%
%ADD51C,0.25000*%
%ADD52C,0.20000*%
%TA.AperFunction,OtherPad,Pad U1-1 (14mm,44.45mm)*%
%ADD53C,0.40000*%
%TA.AperFunction,NonConductor*%
%ADD54C,0.15240*%
%ADD55C,0.20320*%
%ADD56C,0.25400*%
%ADD57C,0.12700*%
%ADD58C,0.15000*%
%ADD59C,0.07620*%
G36*
X2251550Y2254600D02*
Y2229200D01*
X2213450D01*
Y2254600D01*
X2251550D01*
D02*
G37*
G36*
X4011050Y2257405D02*
Y2232005D01*
X3972950D01*
Y2257405D01*
X4011050D01*
D02*
G37*
G36*
X3323192Y3640427D02*
X3350132Y3613486D01*
X3332172Y3595526D01*
X3305231Y3622466D01*
X3323192Y3640427D01*
D02*
G37*
G36*
X3266623Y4463004D02*
X3248663Y4480965D01*
X3275604Y4507906D01*
X3293564Y4489945D01*
X3266623Y4463004D01*
D02*
G37*
G36*
X4116141Y4320240D02*
X4143082Y4293299D01*
X4161043Y4311259D01*
X4134102Y4338200D01*
X4116141Y4320240D01*
D02*
G37*
D51*
X2312500Y3645000D02*
G03*
X2312500Y3645000I-12500J0D01*
G01*
X2512500D02*
G03*
X2512500Y3645000I-12500J0D01*
G01*
X3652500Y975000D02*
G03*
X3652500Y975000I-12500J0D01*
G01*
X2182500Y965000D02*
G03*
X2182500Y965000I-12500J0D01*
G01*
X692500Y990000D02*
G03*
X692500Y990000I-12500J0D01*
G01*
X1522500Y2560000D02*
G03*
X1522500Y2560000I-12500J0D01*
G01*
X1772500D02*
G03*
X1772500Y2560000I-12500J0D01*
G01*
X4180000Y1062500D02*
G03*
X4180000Y1062500I-12500J0D01*
G01*
X2680000D02*
G03*
X2680000Y1062500I-12500J0D01*
G01*
X1180000D02*
G03*
X1180000Y1062500I-12500J0D01*
G01*
X4737500Y3750000D02*
G03*
X4737500Y3750000I-12500J0D01*
G01*
D52*
X620000Y2384000D02*
G03*
X620000Y2384000I-10000J0D01*
G01*
X2193500Y4665000D02*
G03*
X2193500Y4665000I-10000J0D01*
G01*
X1710000Y4500000D02*
G03*
X1710000Y4500000I-10000J0D01*
G01*
X2380000Y3735000D02*
Y3905000D01*
X2220000Y3735000D02*
Y3905000D01*
X2580000Y3735000D02*
Y3905000D01*
X2420000Y3735000D02*
Y3905000D01*
X3720000Y1065000D02*
Y1235000D01*
X3560000Y1065000D02*
Y1235000D01*
X2250000Y1055000D02*
Y1225000D01*
X2090000Y1055000D02*
Y1225000D01*
X760000Y1080000D02*
Y1250000D01*
X600000Y1080000D02*
Y1250000D01*
X1590000Y2300000D02*
Y2470000D01*
X1430000Y2300000D02*
Y2470000D01*
X1840000Y2300000D02*
Y2470000D01*
X1680000Y2300000D02*
Y2470000D01*
X4465000Y3670000D02*
X4635000D01*
X4465000Y3830000D02*
X4635000D01*
X4646694Y769984D02*
Y686678D01*
X4663355Y670016D01*
X4696677D01*
X4713339Y686678D01*
Y769984D01*
X4746661Y686678D02*
X4763323Y670016D01*
X4796645D01*
X4813306Y686678D01*
Y753323D01*
X4796645Y769984D01*
X4763323D01*
X4746661Y753323D01*
Y736661D01*
X4763323Y720000D01*
X4813306D01*
X1646694Y759984D02*
Y676678D01*
X1663355Y660016D01*
X1696678D01*
X1713339Y676678D01*
Y759984D01*
X1746661Y743323D02*
X1763323Y759984D01*
X1796645D01*
X1813307Y743323D01*
Y726661D01*
X1796645Y710000D01*
X1813307Y693339D01*
Y676678D01*
X1796645Y660016D01*
X1763323D01*
X1746661Y676678D01*
Y693339D01*
X1763323Y710000D01*
X1746661Y726661D01*
Y743323D01*
X1763323Y710000D02*
X1796645D01*
X3146693Y769984D02*
Y686678D01*
X3163355Y670016D01*
X3196677D01*
X3213339Y686678D01*
Y769984D01*
X3246661D02*
X3313306D01*
Y753323D01*
X3246661Y686678D01*
Y670016D01*
X2336694Y4859984D02*
Y4776678D01*
X2353355Y4760016D01*
X2386677D01*
X2403339Y4776678D01*
Y4859984D01*
X2503306D02*
X2469984Y4843323D01*
X2436661Y4810000D01*
Y4776678D01*
X2453323Y4760016D01*
X2486645D01*
X2503306Y4776678D01*
Y4793339D01*
X2486645Y4810000D01*
X2436661D01*
X766694Y1909984D02*
Y1826678D01*
X783355Y1810016D01*
X816678D01*
X833339Y1826678D01*
Y1909984D01*
X933306D02*
X866661D01*
Y1860000D01*
X899984Y1876661D01*
X916645D01*
X933306Y1860000D01*
Y1826678D01*
X916645Y1810016D01*
X883323D01*
X866661Y1826678D01*
X3846694Y3129984D02*
Y3046677D01*
X3863355Y3030016D01*
X3896677D01*
X3913339Y3046677D01*
Y3129984D01*
X3996645Y3030016D02*
Y3129984D01*
X3946661Y3080000D01*
X4013306D01*
X2086694Y3119984D02*
Y3036677D01*
X2103355Y3020016D01*
X2136677D01*
X2153339Y3036677D01*
Y3119984D01*
X2186661Y3103322D02*
X2203323Y3119984D01*
X2236645D01*
X2253306Y3103322D01*
Y3086661D01*
X2236645Y3070000D01*
X2219984D01*
X2236645D01*
X2253306Y3053339D01*
Y3036677D01*
X2236645Y3020016D01*
X2203323D01*
X2186661Y3036677D01*
X3016693Y4589984D02*
Y4506678D01*
X3033355Y4490016D01*
X3066677D01*
X3083339Y4506678D01*
Y4589984D01*
X3183306Y4490016D02*
X3116661D01*
X3183306Y4556661D01*
Y4573323D01*
X3166645Y4589984D01*
X3133323D01*
X3116661Y4573323D01*
X1783355Y4374984D02*
Y4291677D01*
X1800016Y4275016D01*
X1833339D01*
X1850000Y4291677D01*
Y4374984D01*
X1883323Y4275016D02*
X1916645D01*
X1899984D01*
Y4374984D01*
X1883323Y4358322D01*
X3856710Y1100016D02*
Y1199984D01*
X3906693D01*
X3923355Y1183323D01*
Y1150000D01*
X3906693Y1133339D01*
X3856710D01*
X3890032D02*
X3923355Y1100016D01*
X4023322D02*
X3956677D01*
X4023322Y1166661D01*
Y1183323D01*
X4006661Y1199984D01*
X3973339D01*
X3956677Y1183323D01*
X4056645D02*
X4073307Y1199984D01*
X4106629D01*
X4123290Y1183323D01*
Y1166661D01*
X4106629Y1150000D01*
X4089968D01*
X4106629D01*
X4123290Y1133339D01*
Y1116677D01*
X4106629Y1100016D01*
X4073307D01*
X4056645Y1116677D01*
X4749984Y1626710D02*
X4650016D01*
Y1676694D01*
X4666677Y1693355D01*
X4700000D01*
X4716661Y1676694D01*
Y1626710D01*
Y1660032D02*
X4749984Y1693355D01*
Y1793323D02*
Y1726678D01*
X4683339Y1793323D01*
X4666677D01*
X4650016Y1776662D01*
Y1743339D01*
X4666677Y1726678D01*
X4749984Y1893291D02*
Y1826646D01*
X4683339Y1893291D01*
X4666677D01*
X4650016Y1876629D01*
Y1843307D01*
X4666677Y1826646D01*
X4549984Y1623371D02*
X4450016D01*
Y1673355D01*
X4466677Y1690016D01*
X4500000D01*
X4516661Y1673355D01*
Y1623371D01*
Y1656693D02*
X4549984Y1690016D01*
Y1789984D02*
Y1723339D01*
X4483339Y1789984D01*
X4466677D01*
X4450016Y1773323D01*
Y1740000D01*
X4466677Y1723339D01*
X4549984Y1823306D02*
Y1856629D01*
Y1839968D01*
X4450016D01*
X4466677Y1823306D01*
X4349983Y1616710D02*
X4250016D01*
Y1666694D01*
X4266677Y1683355D01*
X4300000D01*
X4316661Y1666694D01*
Y1616710D01*
Y1650032D02*
X4349983Y1683355D01*
Y1783323D02*
Y1716678D01*
X4283338Y1783323D01*
X4266677D01*
X4250016Y1766661D01*
Y1733339D01*
X4266677Y1716678D01*
Y1816645D02*
X4250016Y1833307D01*
Y1866629D01*
X4266677Y1883290D01*
X4333322D01*
X4349983Y1866629D01*
Y1833307D01*
X4333322Y1816645D01*
X4266677D01*
X4149983Y1615040D02*
X4050016D01*
Y1665024D01*
X4066677Y1681685D01*
X4099999D01*
X4116661Y1665024D01*
Y1615040D01*
Y1648363D02*
X4149983Y1681685D01*
Y1715008D02*
Y1748331D01*
Y1731670D01*
X4050016D01*
X4066677Y1715008D01*
X4133322Y1798315D02*
X4149983Y1814976D01*
Y1848299D01*
X4133322Y1864960D01*
X4066677D01*
X4050016Y1848299D01*
Y1814976D01*
X4066677Y1798315D01*
X4083338D01*
X4099999Y1814976D01*
Y1864960D01*
X3539984Y1325040D02*
X3440016D01*
Y1375024D01*
X3456677Y1391685D01*
X3490000D01*
X3506661Y1375024D01*
Y1325040D01*
Y1358363D02*
X3539984Y1391685D01*
Y1425008D02*
Y1458331D01*
Y1441669D01*
X3440016D01*
X3456677Y1425008D01*
Y1508314D02*
X3440016Y1524976D01*
Y1558298D01*
X3456677Y1574960D01*
X3473339D01*
X3490000Y1558298D01*
X3506661Y1574960D01*
X3523322D01*
X3539984Y1558298D01*
Y1524976D01*
X3523322Y1508314D01*
X3506661D01*
X3490000Y1524976D01*
X3473339Y1508314D01*
X3456677D01*
X3490000Y1524976D02*
Y1558298D01*
X835040Y1080016D02*
Y1179984D01*
X885024D01*
X901686Y1163323D01*
Y1130000D01*
X885024Y1113339D01*
X835040D01*
X868363D02*
X901686Y1080016D01*
X935008D02*
X968331D01*
X951670D01*
Y1179984D01*
X935008Y1163323D01*
X1018315Y1179984D02*
X1084960D01*
Y1163323D01*
X1018315Y1096678D01*
Y1080016D01*
X1749984Y1625041D02*
X1650016D01*
Y1675025D01*
X1666677Y1691686D01*
X1700000D01*
X1716661Y1675025D01*
Y1625041D01*
Y1658363D02*
X1749984Y1691686D01*
Y1725008D02*
Y1758331D01*
Y1741670D01*
X1650016D01*
X1666677Y1725008D01*
X1650016Y1874960D02*
X1666677Y1841637D01*
X1700000Y1808315D01*
X1733322D01*
X1749984Y1824976D01*
Y1858299D01*
X1733322Y1874960D01*
X1716661D01*
X1700000Y1858299D01*
Y1808315D01*
X1549983Y1625040D02*
X1450016D01*
Y1675024D01*
X1466677Y1691685D01*
X1500000D01*
X1516661Y1675024D01*
Y1625040D01*
Y1658363D02*
X1549983Y1691685D01*
Y1725008D02*
Y1758331D01*
Y1741670D01*
X1450016D01*
X1466677Y1725008D01*
X1450016Y1874960D02*
Y1808315D01*
X1500000D01*
X1483338Y1841637D01*
Y1858299D01*
X1500000Y1874960D01*
X1533322D01*
X1549983Y1858299D01*
Y1824976D01*
X1533322Y1808315D01*
X1349983Y1625040D02*
X1250016D01*
Y1675024D01*
X1266677Y1691685D01*
X1299999D01*
X1316661Y1675024D01*
Y1625040D01*
Y1658363D02*
X1349983Y1691685D01*
Y1725008D02*
Y1758331D01*
Y1741670D01*
X1250016D01*
X1266677Y1725008D01*
X1349983Y1858299D02*
X1250016D01*
X1299999Y1808315D01*
Y1874960D01*
X1159984Y1615041D02*
X1060016D01*
Y1665025D01*
X1076677Y1681686D01*
X1110000D01*
X1126661Y1665025D01*
Y1615041D01*
Y1648363D02*
X1159984Y1681686D01*
Y1715009D02*
Y1748331D01*
Y1731670D01*
X1060016D01*
X1076677Y1715009D01*
Y1798315D02*
X1060016Y1814976D01*
Y1848299D01*
X1076677Y1864960D01*
X1093339D01*
X1110000Y1848299D01*
Y1831637D01*
Y1848299D01*
X1126661Y1864960D01*
X1143322D01*
X1159984Y1848299D01*
Y1814976D01*
X1143322Y1798315D01*
X559983Y1345040D02*
X460016D01*
Y1395024D01*
X476677Y1411686D01*
X509999D01*
X526661Y1395024D01*
Y1345040D01*
Y1378363D02*
X559983Y1411686D01*
Y1445008D02*
Y1478331D01*
Y1461670D01*
X460016D01*
X476677Y1445008D01*
X559983Y1594960D02*
Y1528315D01*
X493338Y1594960D01*
X476677D01*
X460016Y1578299D01*
Y1544976D01*
X476677Y1528315D01*
X2331702Y1090016D02*
Y1189984D01*
X2381686D01*
X2398347Y1173323D01*
Y1140000D01*
X2381686Y1123339D01*
X2331702D01*
X2365024D02*
X2398347Y1090016D01*
X2431670D02*
X2464992D01*
X2448331D01*
Y1189984D01*
X2431670Y1173323D01*
X2514976Y1090016D02*
X2548298D01*
X2531637D01*
Y1189984D01*
X2514976Y1173323D01*
X3249984Y1605041D02*
X3150016D01*
Y1655025D01*
X3166677Y1671686D01*
X3200000D01*
X3216661Y1655025D01*
Y1605041D01*
Y1638363D02*
X3249984Y1671686D01*
Y1705009D02*
Y1738331D01*
Y1721670D01*
X3150016D01*
X3166677Y1705009D01*
Y1788315D02*
X3150016Y1804976D01*
Y1838299D01*
X3166677Y1854960D01*
X3233322D01*
X3249984Y1838299D01*
Y1804976D01*
X3233322Y1788315D01*
X3166677D01*
X3049983Y1606694D02*
X2950016D01*
Y1656677D01*
X2966677Y1673339D01*
X3000000D01*
X3016661Y1656677D01*
Y1606694D01*
Y1640016D02*
X3049983Y1673339D01*
X3033322Y1706661D02*
X3049983Y1723323D01*
Y1756645D01*
X3033322Y1773306D01*
X2966677D01*
X2950016Y1756645D01*
Y1723323D01*
X2966677Y1706661D01*
X2983338D01*
X3000000Y1723323D01*
Y1773306D01*
X2849983Y1606694D02*
X2750016D01*
Y1656677D01*
X2766677Y1673339D01*
X2799999D01*
X2816661Y1656677D01*
Y1606694D01*
Y1640016D02*
X2849983Y1673339D01*
X2766677Y1706661D02*
X2750016Y1723323D01*
Y1756645D01*
X2766677Y1773306D01*
X2783338D01*
X2799999Y1756645D01*
X2816661Y1773306D01*
X2833322D01*
X2849983Y1756645D01*
Y1723323D01*
X2833322Y1706661D01*
X2816661D01*
X2799999Y1723323D01*
X2783338Y1706661D01*
X2766677D01*
X2799999Y1723323D02*
Y1756645D01*
X2649983Y1606694D02*
X2550015D01*
Y1656677D01*
X2566677Y1673339D01*
X2599999D01*
X2616661Y1656677D01*
Y1606694D01*
Y1640016D02*
X2649983Y1673339D01*
X2550015Y1706661D02*
Y1773306D01*
X2566677D01*
X2633322Y1706661D01*
X2649983D01*
X2089983Y1346694D02*
X1990016D01*
Y1396677D01*
X2006677Y1413339D01*
X2039999D01*
X2056661Y1396677D01*
Y1346694D01*
Y1380016D02*
X2089983Y1413339D01*
X1990016Y1513306D02*
X2006677Y1479984D01*
X2039999Y1446661D01*
X2073322D01*
X2089983Y1463323D01*
Y1496645D01*
X2073322Y1513306D01*
X2056661D01*
X2039999Y1496645D01*
Y1446661D01*
X1840016Y2793306D02*
X1939984D01*
Y2743322D01*
X1923322Y2726661D01*
X1890000D01*
X1873338Y2743322D01*
Y2793306D01*
Y2759984D02*
X1840016Y2726661D01*
X1939984Y2626693D02*
Y2693338D01*
X1890000D01*
X1906661Y2660016D01*
Y2643354D01*
X1890000Y2626693D01*
X1856677D01*
X1840016Y2643354D01*
Y2676677D01*
X1856677Y2693338D01*
X2219984Y3406694D02*
X2120016D01*
Y3456678D01*
X2136677Y3473339D01*
X2170000D01*
X2186661Y3456678D01*
Y3406694D01*
Y3440016D02*
X2219984Y3473339D01*
Y3556645D02*
X2120016D01*
X2170000Y3506662D01*
Y3573307D01*
X1429984Y2636694D02*
X1330016D01*
Y2686678D01*
X1346677Y2703339D01*
X1380000D01*
X1396661Y2686678D01*
Y2636694D01*
Y2670016D02*
X1429984Y2703339D01*
X1346677Y2736662D02*
X1330016Y2753323D01*
Y2786645D01*
X1346677Y2803307D01*
X1363339D01*
X1380000Y2786645D01*
Y2769984D01*
Y2786645D01*
X1396661Y2803307D01*
X1413322D01*
X1429984Y2786645D01*
Y2753323D01*
X1413322Y2736662D01*
X2610016Y3573306D02*
X2709984D01*
Y3523322D01*
X2693322Y3506661D01*
X2660000D01*
X2643338Y3523322D01*
Y3573306D01*
Y3539984D02*
X2610016Y3506661D01*
Y3406693D02*
Y3473338D01*
X2676661Y3406693D01*
X2693322D01*
X2709984Y3423354D01*
Y3456677D01*
X2693322Y3473338D01*
X4783355Y3830016D02*
Y3929984D01*
X4833339D01*
X4850000Y3913323D01*
Y3880000D01*
X4833339Y3863339D01*
X4783355D01*
X4816677D02*
X4850000Y3830016D01*
X4883323D02*
X4916645D01*
X4899984D01*
Y3929984D01*
X4883323Y3913323D01*
X1236677Y2940000D02*
X1303323D01*
X1319984Y2956661D01*
Y2989984D01*
X1303323Y3006645D01*
X1236677D01*
X1220016Y2989984D01*
Y2956661D01*
X1253339Y2973322D02*
X1220016Y2940000D01*
Y2956661D02*
X1236677Y2940000D01*
X1220016Y2906677D02*
Y2873355D01*
Y2890016D01*
X1319984D01*
X1303323Y2906677D01*
X770984Y764661D02*
Y797984D01*
Y781323D01*
X687678D01*
X671016Y797984D01*
Y814645D01*
X687678Y831306D01*
X770984Y664694D02*
X754323Y698016D01*
X721000Y731339D01*
X687678D01*
X671016Y714677D01*
Y681355D01*
X687678Y664694D01*
X704339D01*
X721000Y681355D01*
Y731339D01*
X4229016Y4677339D02*
Y4644016D01*
Y4660678D01*
X4312322D01*
X4328984Y4644016D01*
Y4627355D01*
X4312322Y4610694D01*
X4229016Y4777307D02*
Y4710662D01*
X4279000D01*
X4262339Y4743984D01*
Y4760646D01*
X4279000Y4777307D01*
X4312322D01*
X4328984Y4760646D01*
Y4727323D01*
X4312322Y4710662D01*
X774984Y3791662D02*
Y3824984D01*
Y3808323D01*
X691678D01*
X675016Y3824984D01*
Y3841645D01*
X691678Y3858307D01*
X675016Y3708355D02*
X774984D01*
X725000Y3758339D01*
Y3691694D01*
X774984Y4666661D02*
Y4699984D01*
Y4683322D01*
X691677D01*
X675016Y4699984D01*
Y4716645D01*
X691677Y4733306D01*
X758322Y4633338D02*
X774984Y4616677D01*
Y4583355D01*
X758322Y4566693D01*
X741661D01*
X725000Y4583355D01*
Y4600016D01*
Y4583355D01*
X708338Y4566693D01*
X691677D01*
X675016Y4583355D01*
Y4616677D01*
X691677Y4633338D01*
X1063339Y4089984D02*
X1030016D01*
X1046678D01*
Y4006678D01*
X1030016Y3990016D01*
X1013355D01*
X996694Y4006678D01*
X1163307Y3990016D02*
X1096662D01*
X1163307Y4056661D01*
Y4073323D01*
X1146645Y4089984D01*
X1113323D01*
X1096662Y4073323D01*
X2020000Y4919984D02*
X1986678D01*
X2003339D01*
Y4836677D01*
X1986678Y4820016D01*
X1970016D01*
X1953355Y4836677D01*
X2053323Y4820016D02*
X2086645D01*
X2069984D01*
Y4919984D01*
X2053323Y4903322D01*
X3410016Y1076694D02*
X3509984D01*
Y1126678D01*
X3493322Y1143339D01*
X3426677D01*
X3410016Y1126678D01*
Y1076694D01*
X3426677Y1176662D02*
X3410016Y1193323D01*
Y1226646D01*
X3426677Y1243307D01*
X3443339D01*
X3460000Y1226646D01*
X3476661Y1243307D01*
X3493322D01*
X3509984Y1226646D01*
Y1193323D01*
X3493322Y1176662D01*
X3476661D01*
X3460000Y1193323D01*
X3443339Y1176662D01*
X3426677D01*
X3460000Y1193323D02*
Y1226646D01*
X450016Y996694D02*
X549983D01*
Y1046678D01*
X533322Y1063339D01*
X466677D01*
X450016Y1046678D01*
Y996694D01*
Y1096662D02*
Y1163307D01*
X466677D01*
X533322Y1096662D01*
X549983D01*
X1950016Y1066694D02*
X2049983D01*
Y1116677D01*
X2033322Y1133339D01*
X1966677D01*
X1950016Y1116677D01*
Y1066694D01*
Y1233306D02*
X1966677Y1199984D01*
X2000000Y1166661D01*
X2033322D01*
X2049983Y1183323D01*
Y1216645D01*
X2033322Y1233306D01*
X2016661D01*
X2000000Y1216645D01*
Y1166661D01*
X1979984Y2483306D02*
X1880016D01*
Y2433322D01*
X1896677Y2416661D01*
X1963322D01*
X1979984Y2433322D01*
Y2483306D01*
Y2316693D02*
Y2383338D01*
X1930000D01*
X1946661Y2350016D01*
Y2333354D01*
X1930000Y2316693D01*
X1896677D01*
X1880016Y2333354D01*
Y2366677D01*
X1896677Y2383338D01*
X2070016Y3736694D02*
X2169984D01*
Y3786677D01*
X2153323Y3803339D01*
X2086678D01*
X2070016Y3786677D01*
Y3736694D01*
X2169984Y3886645D02*
X2070016D01*
X2120000Y3836661D01*
Y3903306D01*
X1389984Y2316693D02*
X1290016D01*
Y2366677D01*
X1306677Y2383338D01*
X1373322D01*
X1389984Y2366677D01*
Y2316693D01*
X1373322Y2416661D02*
X1389984Y2433323D01*
Y2466645D01*
X1373322Y2483306D01*
X1356661D01*
X1340000Y2466645D01*
Y2449984D01*
Y2466645D01*
X1323338Y2483306D01*
X1306677D01*
X1290016Y2466645D01*
Y2433323D01*
X1306677Y2416661D01*
X2729984Y3903306D02*
X2630016D01*
Y3853322D01*
X2646677Y3836661D01*
X2713322D01*
X2729984Y3853322D01*
Y3903306D01*
X2630016Y3736694D02*
Y3803339D01*
X2696661Y3736694D01*
X2713322D01*
X2729984Y3753355D01*
Y3786677D01*
X2713322Y3803339D01*
X4493355Y3969984D02*
Y3870016D01*
X4543339D01*
X4560000Y3886678D01*
Y3953323D01*
X4543339Y3969984D01*
X4493355D01*
X4593323Y3870016D02*
X4626645D01*
X4609984D01*
Y3969984D01*
X4593323Y3953323D01*
X3606678Y2000016D02*
X3590016Y1983355D01*
Y1950032D01*
X3606678Y1933371D01*
X3673323D01*
X3689984Y1950032D01*
Y1983355D01*
X3673323Y2000016D01*
X3606678Y2033339D02*
X3590016Y2050000D01*
Y2083323D01*
X3606678Y2099984D01*
X3623339D01*
X3640000Y2083323D01*
Y2066661D01*
Y2083323D01*
X3656661Y2099984D01*
X3673323D01*
X3689984Y2083323D01*
Y2050000D01*
X3673323Y2033339D01*
X3689984Y2133307D02*
Y2166629D01*
Y2149968D01*
X3590016D01*
X3606678Y2133307D01*
X173355Y1723322D02*
X156694Y1739984D01*
X123371D01*
X106710Y1723322D01*
Y1656677D01*
X123371Y1640016D01*
X156694D01*
X173355Y1656677D01*
X273323Y1640016D02*
X206678D01*
X273323Y1706661D01*
Y1723322D01*
X256661Y1739984D01*
X223339D01*
X206678Y1723322D01*
X373290Y1739984D02*
X306645D01*
Y1690000D01*
X339968Y1706661D01*
X356629D01*
X373290Y1690000D01*
Y1656677D01*
X356629Y1640016D01*
X323307D01*
X306645Y1656677D01*
X2136677Y1941686D02*
X2120016Y1925025D01*
Y1891702D01*
X2136677Y1875041D01*
X2203322D01*
X2219984Y1891702D01*
Y1925025D01*
X2203322Y1941686D01*
X2219984Y1975008D02*
Y2008331D01*
Y1991670D01*
X2120016D01*
X2136677Y1975008D01*
X2203322Y2058315D02*
X2219984Y2074976D01*
Y2108299D01*
X2203322Y2124960D01*
X2136677D01*
X2120016Y2108299D01*
Y2074976D01*
X2136677Y2058315D01*
X2153339D01*
X2170000Y2074976D01*
Y2124960D01*
X2686677Y4231686D02*
X2670016Y4215025D01*
Y4181702D01*
X2686677Y4165041D01*
X2753322D01*
X2769984Y4181702D01*
Y4215025D01*
X2753322Y4231686D01*
X2769984Y4265008D02*
Y4298331D01*
Y4281670D01*
X2670016D01*
X2686677Y4265008D01*
Y4348315D02*
X2670016Y4364976D01*
Y4398299D01*
X2686677Y4414960D01*
X2703339D01*
X2720000Y4398299D01*
Y4381637D01*
Y4398299D01*
X2736661Y4414960D01*
X2753322D01*
X2769984Y4398299D01*
Y4364976D01*
X2753322Y4348315D01*
X2056677Y4231685D02*
X2040015Y4215024D01*
Y4181702D01*
X2056677Y4165040D01*
X2123322D01*
X2139983Y4181702D01*
Y4215024D01*
X2123322Y4231685D01*
X2139983Y4265008D02*
Y4298331D01*
Y4281670D01*
X2040015D01*
X2056677Y4265008D01*
X2139983Y4414960D02*
Y4348315D01*
X2073338Y4414960D01*
X2056677D01*
X2040015Y4398299D01*
Y4364976D01*
X2056677Y4348315D01*
X1488347Y2183323D02*
X1471686Y2199984D01*
X1438363D01*
X1421702Y2183323D01*
Y2116678D01*
X1438363Y2100016D01*
X1471686D01*
X1488347Y2116678D01*
X1521670Y2100016D02*
X1554992D01*
X1538331D01*
Y2199984D01*
X1521670Y2183323D01*
X1604976Y2100016D02*
X1638298D01*
X1621637D01*
Y2199984D01*
X1604976Y2183323D01*
X481685Y1923323D02*
X465024Y1939984D01*
X431702D01*
X415040Y1923323D01*
Y1856678D01*
X431702Y1840016D01*
X465024D01*
X481685Y1856678D01*
X515008Y1840016D02*
X548331D01*
X531669D01*
Y1939984D01*
X515008Y1923323D01*
X598315D02*
X614976Y1939984D01*
X648298D01*
X664960Y1923323D01*
Y1856678D01*
X648298Y1840016D01*
X614976D01*
X598315Y1856678D01*
Y1923323D01*
X2673339Y2213322D02*
X2656677Y2229984D01*
X2623355D01*
X2606694Y2213322D01*
Y2146677D01*
X2623355Y2130016D01*
X2656677D01*
X2673339Y2146677D01*
X2706661D02*
X2723323Y2130016D01*
X2756645D01*
X2773306Y2146677D01*
Y2213322D01*
X2756645Y2229984D01*
X2723323D01*
X2706661Y2213322D01*
Y2196661D01*
X2723323Y2180000D01*
X2773306D01*
X2673339Y3113322D02*
X2656677Y3129984D01*
X2623355D01*
X2606694Y3113322D01*
Y3046677D01*
X2623355Y3030016D01*
X2656677D01*
X2673339Y3046677D01*
X2706661Y3113322D02*
X2723323Y3129984D01*
X2756645D01*
X2773306Y3113322D01*
Y3096661D01*
X2756645Y3080000D01*
X2773306Y3063339D01*
Y3046677D01*
X2756645Y3030016D01*
X2723323D01*
X2706661Y3046677D01*
Y3063339D01*
X2723323Y3080000D01*
X2706661Y3096661D01*
Y3113322D01*
X2723323Y3080000D02*
X2756645D01*
X4433339Y2193323D02*
X4416677Y2209984D01*
X4383355D01*
X4366694Y2193323D01*
Y2126677D01*
X4383355Y2110016D01*
X4416677D01*
X4433339Y2126677D01*
X4466661Y2209984D02*
X4533306D01*
Y2193323D01*
X4466661Y2126677D01*
Y2110016D01*
X4433339Y3123322D02*
X4416677Y3139984D01*
X4383355D01*
X4366694Y3123322D01*
Y3056677D01*
X4383355Y3040016D01*
X4416677D01*
X4433339Y3056677D01*
X4533306Y3139984D02*
X4499984Y3123322D01*
X4466661Y3090000D01*
Y3056677D01*
X4483323Y3040016D01*
X4516645D01*
X4533306Y3056677D01*
Y3073339D01*
X4516645Y3090000D01*
X4466661D01*
X1933339Y3483322D02*
X1916677Y3499984D01*
X1883355D01*
X1866693Y3483322D01*
Y3416677D01*
X1883355Y3400016D01*
X1916677D01*
X1933339Y3416677D01*
X2033306Y3499984D02*
X1966661D01*
Y3450000D01*
X1999984Y3466661D01*
X2016645D01*
X2033306Y3450000D01*
Y3416677D01*
X2016645Y3400016D01*
X1983323D01*
X1966661Y3416677D01*
X3943339Y4833323D02*
X3926677Y4849984D01*
X3893355D01*
X3876694Y4833323D01*
Y4766678D01*
X3893355Y4750016D01*
X3926677D01*
X3943339Y4766678D01*
X4026645Y4750016D02*
Y4849984D01*
X3976661Y4800000D01*
X4043306D01*
X3313339Y4903322D02*
X3296677Y4919984D01*
X3263355D01*
X3246694Y4903322D01*
Y4836677D01*
X3263355Y4820016D01*
X3296677D01*
X3313339Y4836677D01*
X3346661Y4903322D02*
X3363323Y4919984D01*
X3396645D01*
X3413306Y4903322D01*
Y4886661D01*
X3396645Y4870000D01*
X3379984D01*
X3396645D01*
X3413306Y4853339D01*
Y4836677D01*
X3396645Y4820016D01*
X3363323D01*
X3346661Y4836677D01*
X3323339Y3333323D02*
X3306677Y3349984D01*
X3273355D01*
X3256694Y3333323D01*
Y3266677D01*
X3273355Y3250016D01*
X3306677D01*
X3323339Y3266677D01*
X3423306Y3250016D02*
X3356661D01*
X3423306Y3316661D01*
Y3333323D01*
X3406645Y3349984D01*
X3373323D01*
X3356661Y3333323D01*
X3960000Y3563323D02*
X3943339Y3579984D01*
X3910016D01*
X3893355Y3563323D01*
Y3496678D01*
X3910016Y3480016D01*
X3943339D01*
X3960000Y3496678D01*
X3993323Y3480016D02*
X4026645D01*
X4009984D01*
Y3579984D01*
X3993323Y3563323D01*
D53*
X1400000Y4445000D02*
D03*
D54*
X3801500Y2415715D02*
Y2839895D01*
X4817500Y2415715D02*
Y2839895D01*
X3058000Y2412910D02*
Y2837090D01*
X2042000Y2412910D02*
Y2837090D01*
X3596103Y3577654D02*
X3620000Y3553757D01*
X4122346Y4103897D02*
X4146243Y4080000D01*
X3596103Y4582346D02*
X3620000Y4606243D01*
X3093757Y4080000D02*
X3117654Y4056103D01*
X3620000Y3553757D02*
X3643897Y3577654D01*
X4122346Y4056103D02*
X4146243Y4080000D01*
X3620000Y4606243D02*
X3643897Y4582346D01*
X3093757Y4080000D02*
X3117654Y4103897D01*
D55*
X975000Y1917500D02*
X1105000D01*
X975000Y2235000D02*
X1105000D01*
D56*
X2250000Y2550000D02*
X5000000D01*
X1720000Y3080000D02*
X2250000Y2550000D01*
X0Y3080000D02*
X1720000Y3080000D01*
X997200Y3939300D02*
X1759200D01*
X997200Y3202700D02*
Y3939300D01*
Y3202700D02*
X1759200D01*
Y3939300D01*
X225400Y1944600D02*
Y1843033D01*
X226183Y2554600D02*
Y2453033D01*
X276967Y2503816D02*
X175400D01*
X807751Y544600D02*
Y443033D01*
Y493816D01*
X655400D01*
Y392249D02*
X807751D01*
Y316074D01*
X782359Y290682D01*
X731575D01*
X706183Y316074D01*
Y392249D01*
Y341466D02*
X655400Y290682D01*
X807751Y239898D02*
X655400D01*
X706183Y189115D01*
X655400Y138331D01*
X807751D01*
X4250400Y4377359D02*
X4275792Y4402751D01*
X4326575D01*
X4351967Y4377359D01*
Y4351967D01*
X4326575Y4326575D01*
X4301183D01*
X4326575D01*
X4351967Y4301183D01*
Y4275792D01*
X4326575Y4250400D01*
X4275792D01*
X4250400Y4275792D01*
X751967Y3325400D02*
X650400D01*
X751967Y3426967D01*
Y3452359D01*
X726575Y3477751D01*
X675792D01*
X650400Y3452359D01*
X675400Y4200400D02*
X726183D01*
X700792D01*
Y4352751D01*
X675400Y4327359D01*
X4350400Y327359D02*
X4375792Y352751D01*
X4426575D01*
X4451967Y327359D01*
Y301967D01*
X4426575Y276575D01*
X4401183D01*
X4426575D01*
X4451967Y251183D01*
Y225792D01*
X4426575Y200400D01*
X4375792D01*
X4350400Y225792D01*
X2875400Y200400D02*
X2926183D01*
X2900792D01*
Y352751D01*
X2875400Y327359D01*
X1451967Y200400D02*
X1350400D01*
X1451967Y301967D01*
Y327359D01*
X1426575Y352751D01*
X1375792D01*
X1350400Y327359D01*
D57*
X638000Y2466500D02*
Y2861500D01*
X1182000Y2466500D02*
Y2861500D01*
X2345000Y4720000D02*
X2495000D01*
X2345000Y4420000D02*
X2495000D01*
X1120000Y4960000D02*
Y4990000D01*
X1880000Y4960000D02*
Y4990000D01*
X1120000Y4700000D02*
Y4740000D01*
X1880000Y4700000D02*
Y4740000D01*
X1120000Y4995000D02*
X1880000D01*
D58*
X4245000Y1112500D02*
Y1130000D01*
X4555000Y1112500D02*
Y1130000D01*
X4525000D02*
X4555000D01*
X4245000D02*
X4275000D01*
X2745000Y1112500D02*
Y1130000D01*
X3055000Y1112500D02*
Y1130000D01*
X3025000D02*
X3055000D01*
X2745000D02*
X2775000D01*
X1245000Y1112500D02*
Y1130000D01*
X1555000Y1112500D02*
Y1130000D01*
X1525000D02*
X1555000D01*
X1245000D02*
X1275000D01*
D59*
X3639223Y3650000D02*
X3624261Y3635038D01*
X3609299Y3650000D01*
X3624261Y3664962D01*
X3639223Y3650000D01*
X4740000Y2780000D02*
X4761160D01*
Y2758840D01*
X4740000D01*
Y2780000D01*
X2975000Y2775000D02*
X2996160D01*
Y2753840D01*
X2975000D01*
Y2775000D01*
%TF.MD5,10d9076d6bfc46b8b53bf943d580a70b*%
M02*
