%TF.GenerationSoftware,Altium Limited,Altium Designer,22.11.1 (43)*%
G04 Layer_Color=0*
%FSLAX45Y45*%
%MOMM*%
%TF.SameCoordinates,CBCE8219-7A10-402B-9DFD-5551BF8408A2*%
%TF.FilePolarity,Positive*%
%TF.FileFunction,Plated,1,4,PTH,Drill*%
%TF.Part,Single*%
G01*
G75*
%TA.AperFunction,ComponentDrill*%
%ADD84C,0.80000*%
%ADD85O,0.50000X1.20000*%
%TA.AperFunction,ViaDrill,NotFilled*%
%ADD86C,0.20000*%
D84*
X475000Y346000D02*
D03*
X221000Y473000D02*
D03*
X475000Y600000D02*
D03*
X221000Y727000D02*
D03*
X4525000Y4675000D02*
D03*
X4779000Y4548000D02*
D03*
X4525000Y4421000D02*
D03*
X4779000Y4294000D02*
D03*
X475000Y3371000D02*
D03*
X221000Y3498000D02*
D03*
X475000Y3625000D02*
D03*
X221000Y3752000D02*
D03*
X475000Y4250000D02*
D03*
X221000Y4377000D02*
D03*
X475000Y4504000D02*
D03*
X221000Y4631000D02*
D03*
D85*
X1170000Y4850000D02*
D03*
X1830000D02*
D03*
D86*
X2325000Y942500D02*
D03*
X1325000Y1900000D02*
D03*
X1320000Y4570000D02*
D03*
X430000Y1730000D02*
D03*
X802500Y2025000D02*
D03*
X3690000Y1900000D02*
D03*
X972655Y1422655D02*
D03*
X1870000Y1330000D02*
D03*
X4850000Y1380000D02*
D03*
X3900000Y1430000D02*
D03*
X3510000Y1330000D02*
D03*
X2400000Y1490000D02*
D03*
X1300000Y4305200D02*
D03*
X2400000Y3990000D02*
D03*
X1370000Y3830000D02*
D03*
X2160000Y4760000D02*
D03*
X3260000Y4590000D02*
D03*
X2930000Y3890000D02*
D03*
X3870000Y3320000D02*
D03*
X3970000Y4520000D02*
D03*
X1370000Y3290000D02*
D03*
X2410000Y3430000D02*
D03*
X2220000D02*
D03*
X2690000Y3990000D02*
D03*
X1747684Y1892317D02*
D03*
X2810000Y4500000D02*
D03*
X1350000Y3700000D02*
D03*
Y3570000D02*
D03*
X3550000Y3550000D02*
D03*
X3650000Y3400000D02*
D03*
X4850000Y3525000D02*
D03*
X980000Y2250000D02*
D03*
X920000Y2290000D02*
D03*
X860000Y2250000D02*
D03*
X800000Y2290000D02*
D03*
X1160000Y2410000D02*
D03*
X1230000Y2390000D02*
D03*
X1220000Y2470000D02*
D03*
X2110000Y2460000D02*
D03*
X2870000Y2450000D02*
D03*
X4620000Y2460000D02*
D03*
X4120000Y2170000D02*
D03*
X450000Y2200000D02*
D03*
Y2350000D02*
D03*
X910000Y2440000D02*
D03*
X780000D02*
D03*
X910000Y2370000D02*
D03*
X780000Y2360000D02*
D03*
X680000Y2290000D02*
D03*
X740000Y2250000D02*
D03*
X3860000Y2190000D02*
D03*
X1030000Y2180000D02*
D03*
Y2098609D02*
D03*
Y2017218D02*
D03*
X1510000Y2890000D02*
D03*
X1760000D02*
D03*
X2290000Y1770000D02*
D03*
X300000Y2050000D02*
D03*
Y2350000D02*
D03*
Y2200000D02*
D03*
X150000D02*
D03*
Y2050000D02*
D03*
X450000D02*
D03*
X150000Y2350000D02*
D03*
X4600000Y1540000D02*
D03*
X4200000Y1540000D02*
D03*
X2697500Y1542500D02*
D03*
X1600000Y1540000D02*
D03*
X1200000D02*
D03*
X3102500D02*
D03*
X1760000Y905000D02*
D03*
X1645000D02*
D03*
X3150000Y3150000D02*
D03*
X3090000Y2020000D02*
D03*
X2034243Y1734243D02*
D03*
X2194363Y2016298D02*
D03*
X1820000Y1970000D02*
D03*
X3325000Y990000D02*
D03*
X3227500Y905000D02*
D03*
X2825000Y2750000D02*
D03*
X2150000D02*
D03*
X3400000Y3890000D02*
D03*
X3200000Y3625000D02*
D03*
X3300000Y4025000D02*
D03*
X3350000Y3950000D02*
D03*
X4210000Y3220000D02*
D03*
X3789444Y3797419D02*
D03*
X3789633Y3871250D02*
D03*
X3550000Y3750000D02*
D03*
X3300000Y3500000D02*
D03*
X4370000Y3243032D02*
D03*
X3525000Y4175000D02*
D03*
X3650000Y4500000D02*
D03*
X3680000Y4420000D02*
D03*
X1926250Y828750D02*
D03*
X1850000Y905000D02*
D03*
X4621250D02*
D03*
X4745000D02*
D03*
X4937500Y810000D02*
D03*
X4842500Y905000D02*
D03*
X3427500Y820000D02*
D03*
X3342500Y905000D02*
D03*
X3121250D02*
D03*
X3820000Y975000D02*
D03*
X4810000Y1020000D02*
D03*
X1747500Y990000D02*
D03*
X1525000Y625000D02*
D03*
X1275000D02*
D03*
X1350000Y550000D02*
D03*
X1450000D02*
D03*
X2950000D02*
D03*
X2850000D02*
D03*
X2775000Y625000D02*
D03*
X3025000D02*
D03*
X4450000Y550000D02*
D03*
X4350000D02*
D03*
X4525000Y625000D02*
D03*
X4275000D02*
D03*
X2820000Y4870000D02*
D03*
X770000Y920000D02*
D03*
X4760000Y2020000D02*
D03*
X4370000Y1910000D02*
D03*
X3910000Y2720000D02*
D03*
X2180600Y4497500D02*
D03*
X3580000Y4760000D02*
D03*
X4650000Y3250000D02*
D03*
X2100000Y3300000D02*
D03*
X4760000Y3190000D02*
D03*
X3500000Y1800000D02*
D03*
X4250000Y2150000D02*
D03*
X2760000Y3410000D02*
D03*
X3110000Y3730000D02*
D03*
X4240000Y4070000D02*
D03*
X4270000Y3350000D02*
D03*
X3250000Y4690000D02*
D03*
X3810000Y4100000D02*
D03*
X3780000Y4180000D02*
D03*
X4270000Y3800000D02*
D03*
X4070000Y4460000D02*
D03*
%TF.MD5,29233efa03f9b6e544d84fba2364750f*%
M02*
