%TF.GenerationSoftware,Altium Limited,Altium Designer,22.11.1 (43)*%
G04 Layer_Color=128*
%FSLAX45Y45*%
%MOMM*%
%TF.SameCoordinates,CBCE8219-7A10-402B-9DFD-5551BF8408A2*%
%TF.FilePolarity,Positive*%
%TF.FileFunction,Paste,Bot*%
%TF.Part,Single*%
G01*
G75*
%TA.AperFunction,SMDPad,CuDef*%
%ADD50R,1.35620X1.05464*%
%ADD60R,1.15000X1.05000*%
D50*
X3900000Y1177422D02*
D03*
Y1322578D02*
D03*
X4150000Y1277422D02*
D03*
Y1422578D02*
D03*
X4400000Y1277422D02*
D03*
Y1422578D02*
D03*
X4650000Y1277422D02*
D03*
Y1422578D02*
D03*
X1650000Y1277422D02*
D03*
Y1422578D02*
D03*
X1400000Y1277422D02*
D03*
Y1422578D02*
D03*
X1150000Y1277422D02*
D03*
Y1422578D02*
D03*
X900000Y1177422D02*
D03*
Y1322578D02*
D03*
X2400000Y1227422D02*
D03*
Y1372578D02*
D03*
X2900000Y1277422D02*
D03*
Y1422578D02*
D03*
X2650000Y1277422D02*
D03*
Y1422578D02*
D03*
X3150000Y1277422D02*
D03*
Y1422578D02*
D03*
D60*
X4850000Y1127500D02*
D03*
Y1272500D02*
D03*
X1850000Y1077500D02*
D03*
Y1222500D02*
D03*
X3350000Y1177500D02*
D03*
Y1322500D02*
D03*
%TF.MD5,6111b3566f4bc82c5ddcc981f731da1a*%
M02*
